<svg xmlns="http://www.w3.org/2000/svg" width="9.784" height="15.655" viewBox="0 0 9.784 15.655">
  <g id="Group_20266" data-name="Group 20266" transform="translate(-50.493 -408.494)">
    <path id="Icon_metro-location" data-name="Icon metro-location" d="M13.247,1.928A4.892,4.892,0,0,0,8.355,6.82c0,4.892,4.892,10.763,4.892,10.763s4.892-5.871,4.892-10.763a4.892,4.892,0,0,0-4.892-4.892Zm0,7.889a3,3,0,1,1,3-3A3,3,0,0,1,13.247,9.817Zm-1.9-3a1.9,1.9,0,1,1,1.9,1.9A1.9,1.9,0,0,1,11.351,6.82Z" transform="translate(42.138 406.566)" fill="#ffaf00"/>
    <circle id="Ellipse_268" data-name="Ellipse 268" cx="2.151" cy="2.151" r="2.151" transform="translate(53.237 411.237)" fill="#ffe3a6"/>
  </g>
</svg>
