<svg xmlns="http://www.w3.org/2000/svg" width="17.112" height="17.112" viewBox="0 0 17.112 17.112"><defs><style>.a{fill:#e24c4b;}.b{fill:#fff;}</style></defs><circle class="a" cx="8.556" cy="8.556" r="8.556"/><path class="b" d="M125.7,125.7a.873.873,0,0,1-1.223,0l-2.836-2.836-2.836,2.836a.865.865,0,0,1-1.223-1.223l2.836-2.836-2.836-2.836a.865.865,0,0,1,1.223-1.223l2.836,2.836,2.836-2.836a.865.865,0,0,1,1.223,1.223l-2.836,2.836,2.836,2.836A.873.873,0,0,1,125.7,125.7Z" transform="translate(-112.729 -112.729)"/></svg>