<svg xmlns="http://www.w3.org/2000/svg" width="17.971" height="20.355" viewBox="0 0 17.971 20.355">
  <g id="compass" transform="translate(-29.957)">
    <g id="Group_21105" data-name="Group 21105" transform="translate(29.957 0)">
      <path id="Path_27589" data-name="Path 27589" d="M47.925,74H46.138a.6.6,0,1,1,0-1.194h1.79a8.926,8.926,0,0,0-2.211-5.336l-.024.026-1.241,1.241a.6.6,0,0,1-.844-.844l1.241-1.241.026-.024a8.922,8.922,0,0,0-4-2.024,2.385,2.385,0,0,1-1.333.916v.688a.6.6,0,1,1-1.194,0v-.688a2.385,2.385,0,0,1-1.333-.916,8.922,8.922,0,0,0-4,2.024l.026.024,1.241,1.241a.6.6,0,1,1-.844.844L32.192,67.5l-.024-.026a8.926,8.926,0,0,0-2.211,5.336h1.79a.6.6,0,1,1,0,1.194h-1.79a8.926,8.926,0,0,0,2.211,5.336l.024-.026,1.241-1.241a.6.6,0,1,1,.844.844l-1.241,1.241-.026.024a8.926,8.926,0,0,0,5.336,2.211V80.6a.6.6,0,1,1,1.194,0v1.79a8.926,8.926,0,0,0,5.336-2.211l-.026-.024-1.241-1.241a.6.6,0,1,1,.844-.844l1.241,1.241.024.026A8.926,8.926,0,0,0,47.928,74ZM43.29,74H40.913l-.179.35.75.75a.6.6,0,1,1-.844.844l-.75-.75-.35.179v2.378a.6.6,0,1,1-1.194,0V75.984l-2.411,1.231a.6.6,0,0,1-.8-.8L36.363,74H34.594a.6.6,0,0,1,0-1.194h2.378l.179-.35-.75-.75a.6.6,0,0,1,.844-.844l.75.75.35-.179V69.057a.6.6,0,1,1,1.194,0v1.768l2.411-1.231a.6.6,0,0,1,.8.8l-1.231,2.411H43.29a.6.6,0,0,1,0,1.194Z" transform="translate(-29.957 -62.035)" fill="#a8adb7"/>
      <circle id="Ellipse_492" data-name="Ellipse 492" cx="1.184" cy="1.184" r="1.184" transform="translate(7.801 0)" fill="#a8adb7"/>
    </g>
    <g id="Group_21106" data-name="Group 21106" transform="translate(37.033 9.46)">
      <path id="Path_27590" data-name="Path 27590" d="M209.051,239.009l-1.291,2.528,2.528-1.291,1.291-2.528Z" transform="translate(-207.76 -237.718)" fill="#a8adb7"/>
    </g>
  </g>
</svg>
