<svg xmlns="http://www.w3.org/2000/svg" width="18.35" height="10.752" viewBox="0 0 18.35 10.752">
  <path id="Coupon" d="M16.737,106H1.613A1.615,1.615,0,0,0,0,107.613v2.15a.537.537,0,0,0,.538.538h.538a1.075,1.075,0,0,1,0,2.15H.538a.537.537,0,0,0-.538.538v2.15a1.615,1.615,0,0,0,1.613,1.613H16.737a1.615,1.615,0,0,0,1.613-1.613v-2.15a.537.537,0,0,0-.538-.538h-.538a1.075,1.075,0,1,1,0-2.15h.538a.537.537,0,0,0,.538-.538v-2.15A1.615,1.615,0,0,0,16.737,106ZM5.412,109.763a1.613,1.613,0,1,1,1.613,1.613A1.615,1.615,0,0,1,5.412,109.763Zm1.277,4.721a.539.539,0,0,1-.084-.756l4.3-5.376a.538.538,0,1,1,.84.672l-4.3,5.376A.539.539,0,0,1,6.689,114.484Zm4.637.118a1.613,1.613,0,1,1,1.613-1.613A1.615,1.615,0,0,1,11.325,114.6Z" transform="translate(0 -106)" fill="#fff"/>
</svg>
