<svg xmlns="http://www.w3.org/2000/svg" width="16.053" height="16.055" viewBox="0 0 16.053 16.055">
  <g id="customer" transform="translate(-0.024)">
    <g id="Group_20603" data-name="Group 20603" transform="translate(6.61)">
      <g id="Group_20602" data-name="Group 20602">
        <path id="Path_27570" data-name="Path 27570" d="M211.942,0a1.937,1.937,0,0,0-1.913,1.913,1.937,1.937,0,0,0,1.913,1.913,1.913,1.913,0,0,0,0-3.826Z" transform="translate(-210.029)" fill="#fff"/>
      </g>
    </g>
    <g id="Group_20605" data-name="Group 20605" transform="translate(5.669 3.826)">
      <g id="Group_20604" data-name="Group 20604">
        <path id="Path_27571" data-name="Path 27571" d="M184.971,122a2.805,2.805,0,0,1-2.088.941,2.874,2.874,0,0,1-2.12-.941,2.8,2.8,0,0,0-.734,1.881v.47a.47.47,0,0,0,.47.47h4.735a.47.47,0,0,0,.47-.47v-.47A2.8,2.8,0,0,0,184.971,122Z" transform="translate(-180.029 -122)" fill="#fff"/>
      </g>
    </g>
    <g id="Group_20607" data-name="Group 20607" transform="translate(0.024 9.11)">
      <g id="Group_20606" data-name="Group 20606" transform="translate(0)">
        <path id="Path_27572" data-name="Path 27572" d="M4.569,295.858l-2.4-4.806a.941.941,0,0,0-1.259-.423l-.626.31a.471.471,0,0,0-.212.632L2.9,297.216a.471.471,0,0,0,.63.211l.618-.306A.941.941,0,0,0,4.569,295.858Z" transform="translate(-0.024 -290.532)" fill="#fff"/>
      </g>
    </g>
    <g id="Group_20609" data-name="Group 20609" transform="translate(2.815 7.415)">
      <g id="Group_20608" data-name="Group 20608">
        <path id="Path_27573" data-name="Path 27573" d="M101.895,236.83a.938.938,0,0,0-1.242.122l-2.571,3.161a1.137,1.137,0,0,1-.7.3H95.194a.47.47,0,0,1,0-.941h1.881a.941.941,0,1,0,0-1.881H94.611c-.234,0-.351-.149-.536-.31a3.273,3.273,0,0,0-2.92-.715,3.432,3.432,0,0,0-1.444.721l-.014-.011-.68.6,2.674,5.361h5.386a2.834,2.834,0,0,0,2.258-1.129l2.759-3.951A.948.948,0,0,0,101.895,236.83Z" transform="translate(-89.016 -236.479)" fill="#fff"/>
      </g>
    </g>
  </g>
</svg>
