<svg xmlns="http://www.w3.org/2000/svg" width="15.677" height="17.418" viewBox="0 0 15.677 17.418">
  <g id="firstname_basicinfo_signup" transform="translate(-43.662 -230.791)">
    <path id="Icon_material-date-range" data-name="Icon material-date-range" d="M9.726,10.838H7.984V12.58H9.726Zm3.484,0H11.467V12.58h1.742Zm3.484,0H14.951V12.58h1.742Zm1.742-6.1h-.871V3H15.822V4.742H8.855V3H7.113V4.742H6.242A1.734,1.734,0,0,0,4.509,6.484L4.5,18.677a1.741,1.741,0,0,0,1.742,1.742H18.435a1.747,1.747,0,0,0,1.742-1.742V6.484A1.747,1.747,0,0,0,18.435,4.742Zm0,13.935H6.242V9.1H18.435Z" transform="translate(39.162 227.791)" fill="#ccc"/>
  </g>
</svg>
