<svg xmlns="http://www.w3.org/2000/svg" width="24.365" height="7.575" viewBox="0 0 24.365 7.575">
  <g id="firstname_basicinfo_signup" transform="translate(-39.25 -235.545)">
    <g id="Group_21066" data-name="Group 21066" transform="translate(24 208.664)">
      <rect id="Rectangle_4654" data-name="Rectangle 4654" width="4.217" height="1.015" transform="translate(37.271 27.896) rotate(180)" fill="#ccc"/>
      <rect id="Rectangle_4655" data-name="Rectangle 4655" width="1.484" height="1.015" transform="translate(19.935 27.896) rotate(180)" fill="#ccc"/>
      <rect id="Rectangle_4656" data-name="Rectangle 4656" width="1.484" height="1.015" transform="translate(16.967 27.896) rotate(180)" fill="#ccc"/>
      <rect id="Rectangle_4657" data-name="Rectangle 4657" width="10.074" height="1.015" transform="translate(31.571 27.896) rotate(180)" fill="#ccc"/>
      <rect id="Rectangle_4658" data-name="Rectangle 4658" width="1.484" height="1.015" transform="translate(25.245 34.456) rotate(180)" fill="#ccc"/>
      <rect id="Rectangle_4659" data-name="Rectangle 4659" width="1.484" height="1.015" transform="translate(22.278 34.456) rotate(180)" fill="#ccc"/>
      <rect id="Rectangle_4660" data-name="Rectangle 4660" width="10.074" height="1.015" transform="translate(36.881 34.456) rotate(180)" fill="#ccc"/>
      <rect id="Rectangle_4661" data-name="Rectangle 4661" width="4.217" height="1.015" transform="translate(25.167 30.161) rotate(180)" fill="#ccc"/>
      <rect id="Rectangle_4662" data-name="Rectangle 4662" width="4.217" height="1.015" transform="translate(19.466 30.161) rotate(180)" fill="#ccc"/>
      <rect id="Rectangle_4663" data-name="Rectangle 4663" width="1.484" height="1.015" transform="translate(39.614 30.161) rotate(180)" fill="#ccc"/>
      <rect id="Rectangle_4664" data-name="Rectangle 4664" width="10.074" height="1.015" transform="translate(36.647 30.161) rotate(180)" fill="#ccc"/>
      <rect id="Rectangle_4665" data-name="Rectangle 4665" width="4.217" height="1.015" transform="translate(29.696 31.332)" fill="#ccc"/>
      <rect id="Rectangle_4666" data-name="Rectangle 4666" width="4.217" height="1.015" transform="translate(35.397 31.332)" fill="#ccc"/>
      <rect id="Rectangle_4667" data-name="Rectangle 4667" width="1.484" height="1.015" transform="translate(15.249 31.332)" fill="#ccc"/>
      <rect id="Rectangle_4668" data-name="Rectangle 4668" width="10.074" height="1.015" transform="translate(18.217 31.332)" fill="#ccc"/>
    </g>
  </g>
</svg>
