<svg xmlns="http://www.w3.org/2000/svg" width="16.513" height="17.21" viewBox="0 0 16.513 17.21">
  <g id="discount" transform="translate(-10.359 0.002)">
    <g id="Group_20597" data-name="Group 20597" transform="translate(10.359 -0.002)">
      <g id="Group_20596" data-name="Group 20596" transform="translate(0 0)">
        <path id="Path_27567" data-name="Path 27567" d="M26.076,8.826a.5.5,0,0,1,0-.446l.642-1.313a1.494,1.494,0,0,0-.645-1.984L24.782,4.4a.5.5,0,0,1-.262-.361L24.268,2.6A1.494,1.494,0,0,0,22.58,1.372l-1.447.2a.5.5,0,0,1-.424-.138L19.659.423a1.494,1.494,0,0,0-2.086,0l-1.05,1.016a.5.5,0,0,1-.424.138l-1.447-.2A1.494,1.494,0,0,0,12.963,2.6l-.252,1.44a.5.5,0,0,1-.262.361l-1.291.685a1.494,1.494,0,0,0-.645,1.984l.642,1.313a.5.5,0,0,1,0,.446l-.642,1.313a1.494,1.494,0,0,0,.645,1.984l1.291.685a.5.5,0,0,1,.262.361l.252,1.44a1.493,1.493,0,0,0,1.473,1.241,1.535,1.535,0,0,0,.215-.015l1.447-.2a.5.5,0,0,1,.424.138l1.05,1.016a1.494,1.494,0,0,0,2.086,0l1.05-1.016a.5.5,0,0,1,.424-.138l1.447.2a1.494,1.494,0,0,0,1.688-1.226l.253-1.44a.5.5,0,0,1,.262-.361l1.291-.685a1.494,1.494,0,0,0,.645-1.984ZM16.63,4.136a1.82,1.82,0,1,1-1.82,1.82A1.822,1.822,0,0,1,16.63,4.136Zm-.939,8.093a.5.5,0,0,1-.7-.7L21.54,4.977a.5.5,0,0,1,.7.7Zm4.91.84a1.82,1.82,0,1,1,1.82-1.82A1.822,1.822,0,0,1,20.6,13.07Z" transform="translate(-10.359 0.002)" fill="#ccc"/>
      </g>
    </g>
    <g id="Group_20599" data-name="Group 20599" transform="translate(19.941 10.6)">
      <g id="Group_20598" data-name="Group 20598">
        <path id="Path_27568" data-name="Path 27568" d="M291.147,310.141a.695.695,0,1,0,.695.695A.7.7,0,0,0,291.147,310.141Z" transform="translate(-290.452 -310.141)" fill="#ccc"/>
      </g>
    </g>
    <g id="Group_20601" data-name="Group 20601" transform="translate(15.9 5.216)">
      <g id="Group_20600" data-name="Group 20600" transform="translate(0)">
        <path id="Path_27569" data-name="Path 27569" d="M173.028,152.646a.695.695,0,1,0,.695.695A.7.7,0,0,0,173.028,152.646Z" transform="translate(-172.333 -152.646)" fill="#ccc"/>
      </g>
    </g>
  </g>
</svg>
