<svg xmlns="http://www.w3.org/2000/svg" width="14.337" height="13.235" viewBox="0 0 14.337 13.235">
  <path id="event" d="M6,10.412V9.584A2.485,2.485,0,0,1,8.481,7.1h.827V7.93a1.1,1.1,0,0,0,2.206,0V7.1h3.309V7.93a1.1,1.1,0,0,0,2.206,0V7.1h.827a2.485,2.485,0,0,1,2.481,2.481v.827ZM9.86,7.93a.551.551,0,1,0,1.1,0V6.551a.551.551,0,0,0-1.1,0Zm5.514-1.379V7.93a.551.551,0,1,0,1.1,0V6.551a.551.551,0,0,0-1.1,0Zm4.963,4.412v5.79a2.485,2.485,0,0,1-2.481,2.481H8.481A2.485,2.485,0,0,1,6,16.753v-5.79Zm-5.154,3.118H14.045L13.693,13a.551.551,0,0,0-1.048,0l-.352,1.083H11.154a.551.551,0,0,0-.324,1l.921.669L11.4,16.831a.551.551,0,0,0,.849.617l.921-.669.921.669a.551.551,0,0,0,.849-.617l-.352-1.083.921-.669a.551.551,0,0,0-.324-1Z" transform="translate(-6 -6)" fill="#fff"/>
</svg>
