<svg xmlns="http://www.w3.org/2000/svg" width="13.699" height="13.699" viewBox="0 0 13.699 13.699">
  <g id="Feed" transform="translate(-2666 -876)">
    <path id="Path_33006" data-name="Path 33006" d="M2.02,129.856a.415.415,0,0,0,.415-.415V121H1.472A1.473,1.473,0,0,0,0,122.472v6.97a2.019,2.019,0,0,0,.816,1.621v0A1.205,1.205,0,0,1,2.02,129.856Z" transform="translate(2666 758.237)" fill="#fff"/>
    <path id="Path_33007" data-name="Path 33007" d="M71.109,0H63.59a1.473,1.473,0,0,0-1.472,1.472V11.679A1.219,1.219,0,0,1,60.9,12.9a.4.4,0,0,0,0,.8h9.137a2.545,2.545,0,0,0,2.542-2.542V1.472A1.473,1.473,0,0,0,71.109,0Zm-6.7,3.773h3.746a.4.4,0,1,1,0,.8H64.406a.4.4,0,0,1,0-.8Zm5.886,6.154H64.406a.4.4,0,0,1,0-.8h5.886a.4.4,0,0,1,0,.8Zm0-2.833H64.406a.4.4,0,0,1,0-.8h5.886a.4.4,0,0,1,0,.8Z" transform="translate(2607.119 876)" fill="#fff"/>
  </g>
</svg>
