<svg xmlns="http://www.w3.org/2000/svg" width="19.36" height="17.209" viewBox="0 0 19.36 17.209">
  <g id="firstname_basicinfo_signup" transform="translate(-41.399 -231)">
    <path id="Icon_metro-shop" data-name="Icon metro-shop" d="M9.623,10.274l.851-5.647H6.049L4.2,9.467a1.7,1.7,0,0,0-.087.538c0,1.187,1.237,2.151,2.765,2.151a2.624,2.624,0,0,0,2.745-1.882Zm4.17,1.882c1.527,0,2.765-.964,2.765-2.151,0-.044,0-.088-.005-.13l-.547-5.248H11.581l-.549,5.243c0,.044,0,.088,0,.134,0,1.187,1.238,2.151,2.765,2.151Zm5.378,1.125v4.253H8.415V13.288a4.526,4.526,0,0,1-1.537.267,4.435,4.435,0,0,1-.614-.053v6.829a1.509,1.509,0,0,0,1.5,1.506H19.817a1.511,1.511,0,0,0,1.506-1.506V13.5a4.621,4.621,0,0,1-.614.053A4.47,4.47,0,0,1,19.171,13.281Zm4.216-3.814-1.851-4.84H17.113l.85,5.638a2.617,2.617,0,0,0,2.746,1.891c1.527,0,2.765-.964,2.765-2.151A1.727,1.727,0,0,0,23.388,9.467Z" transform="translate(37.286 226.373)" fill="#ccc"/>
  </g>
</svg>
