<svg xmlns="http://www.w3.org/2000/svg" width="21.187" height="19.131" viewBox="0 0 21.187 19.131">
  <g id="firstname_basicinfo_signup" transform="translate(-40.963 -230)">
    <path id="Icon_weather-flood" data-name="Icon weather-flood" d="M8.064,25.984c0-.064.013-.153.026-.268V19.637a4.187,4.187,0,0,0,1.469,1.52,3.988,3.988,0,0,0,4.125,0,4.09,4.09,0,0,0,1.469-1.52,4.086,4.086,0,0,0,1.469,1.52,3.988,3.988,0,0,0,4.125,0,4.09,4.09,0,0,0,1.469-1.52,4.292,4.292,0,0,0,1.469,1.52,3.83,3.83,0,0,0,2.043.575,3.874,3.874,0,0,0,2.056-.575,3.994,3.994,0,0,0,1.469-1.52v6.539A1.355,1.355,0,0,1,28.1,27.325a.317.317,0,0,0-.1.013.317.317,0,0,1-.1.013.288.288,0,0,1-.089-.013.317.317,0,0,0-.1-.013H9.622a.359.359,0,0,0-.1.013.288.288,0,0,1-.089.013.317.317,0,0,1-.1-.013.288.288,0,0,0-.089-.013,1.268,1.268,0,0,1-.741-.358,1.444,1.444,0,0,1-.409-.715C8.077,26.138,8.064,26.048,8.064,25.984ZM15.1,11.821a.775.775,0,0,1,.217-.536L18.14,8.45l.038-.026c.013,0,.013,0,.013-.013s.013,0,.013-.013.013,0,.013-.013h.013c.013,0,.013,0,.013-.013s0-.013.013-.026h.026l.013-.013h.013l.013-.013h.013l.013-.013h.013c.013-.013.013-.013.026-.013H18.4c0-.013.013-.013.026-.013s.013-.013.026-.013l.051-.026h.013c.013,0,.013,0,.013-.013h.089l.013-.013h.153c.013,0,.013,0,.026.013h.077c0,.013,0,.013.013.013h.026c.013.013.026.026.038.026l.026.013h.026l.013.013h.013l.013.013c.013,0,.013,0,.013.013h.051c.013.013.013.013.026.013s0,.026.013.026l.013.013h.026l.013.013-.038.026.013.013.026.026,2.835,2.835a.735.735,0,0,1,.23.536.741.741,0,0,1-1.277.524l-1.571-1.558V19.6a.7.7,0,0,1-.217.511.723.723,0,0,1-.524.217.775.775,0,0,1-.536-.217.668.668,0,0,1-.217-.511V10.787l-1.558,1.558a.735.735,0,0,1-.536.23.688.688,0,0,1-.524-.23A.767.767,0,0,1,15.1,11.821Z" transform="translate(32.899 221.78)" fill="#ccc"/>
  </g>
</svg>
