<svg xmlns="http://www.w3.org/2000/svg" width="19.111" height="19.115" viewBox="0 0 19.111 19.115">
  <g id="globe" transform="translate(-5.01 -5)">
    <path id="Path_27591" data-name="Path 27591" d="M5.62,12.683a10.053,10.053,0,0,1,4.542-2.2A10.179,10.179,0,0,1,12.49,5.71a9.632,9.632,0,0,0-6.87,6.973Z" transform="translate(-0.377 -0.439)" fill="#a8adb7"/>
    <path id="Path_27592" data-name="Path 27592" d="M9.3,23.783a18.888,18.888,0,0,1,.306-3.173c-2.5.68-4.278,1.85-4.588,3.173Z" transform="translate(-0.006 -9.642)" fill="#a8adb7"/>
    <path id="Path_27593" data-name="Path 27593" d="M9.6,34.267a19.343,19.343,0,0,1-.306-3.177H5.01c.31,1.33,2.087,2.5,4.588,3.177Z" transform="translate(0 -16.116)" fill="#a8adb7"/>
    <path id="Path_27594" data-name="Path 27594" d="M5.62,36.05a9.631,9.631,0,0,0,6.874,6.973,10.13,10.13,0,0,1-2.328-4.767A10.012,10.012,0,0,1,5.62,36.05Z" transform="translate(-0.377 -19.18)" fill="#a8adb7"/>
    <path id="Path_27595" data-name="Path 27595" d="M19.94,9.844a20.1,20.1,0,0,1,3.429-.333V5c-1.453.306-2.722,2.2-3.429,4.844Z" transform="translate(-9.222)" fill="#a8adb7"/>
    <path id="Path_27596" data-name="Path 27596" d="M34.733,19.379a19.342,19.342,0,0,0-3.643-.409v3.8h4.018A19.216,19.216,0,0,0,34.733,19.379Z" transform="translate(-16.11 -8.629)" fill="#a8adb7"/>
    <path id="Path_27597" data-name="Path 27597" d="M31.09,47.18c1.449-.306,2.718-2.194,3.429-4.84a20.091,20.091,0,0,1-3.429.336Z" transform="translate(-16.11 -23.065)" fill="#a8adb7"/>
    <path id="Path_27598" data-name="Path 27598" d="M31.09,5V9.511a20.1,20.1,0,0,1,3.429.333C33.812,7.2,32.539,5.306,31.09,5Z" transform="translate(-16.11 0)" fill="#a8adb7"/>
    <path id="Path_27599" data-name="Path 27599" d="M31.09,34.894a19.343,19.343,0,0,0,3.643-.409,19.219,19.219,0,0,0,.375-3.395H31.09Z" transform="translate(-16.11 -16.116)" fill="#a8adb7"/>
    <path id="Path_27600" data-name="Path 27600" d="M19.94,42.34c.707,2.645,1.98,4.534,3.429,4.84v-4.5A20.091,20.091,0,0,1,19.94,42.34Z" transform="translate(-9.222 -23.065)" fill="#a8adb7"/>
    <path id="Path_27601" data-name="Path 27601" d="M18.39,22.77h4.022v-3.8a19.347,19.347,0,0,0-3.647.409A19.216,19.216,0,0,0,18.39,22.77Z" transform="translate(-8.265 -8.629)" fill="#a8adb7"/>
    <path id="Path_27602" data-name="Path 27602" d="M18.765,34.485a19.348,19.348,0,0,0,3.647.409v-3.8H18.39A19.22,19.22,0,0,0,18.765,34.485Z" transform="translate(-8.265 -16.116)" fill="#a8adb7"/>
    <path id="Path_27603" data-name="Path 27603" d="M36.4,5.71a10.215,10.215,0,0,1,2.324,4.771,10.029,10.029,0,0,1,4.545,2.2A9.62,9.62,0,0,0,36.4,5.71Z" transform="translate(-19.39 -0.439)" fill="#a8adb7"/>
    <path id="Path_27604" data-name="Path 27604" d="M42.98,20.61a19.3,19.3,0,0,1,.306,3.173h4.289C47.262,22.453,45.48,21.287,42.98,20.61Z" transform="translate(-23.454 -9.642)" fill="#a8adb7"/>
    <path id="Path_27605" data-name="Path 27605" d="M38.721,38.256A10.179,10.179,0,0,1,36.4,43.023a9.631,9.631,0,0,0,6.874-6.973A10.044,10.044,0,0,1,38.721,38.256Z" transform="translate(-19.39 -19.18)" fill="#a8adb7"/>
    <path id="Path_27606" data-name="Path 27606" d="M43.276,31.09a18.934,18.934,0,0,1-.306,3.177c2.5-.68,4.286-1.85,4.591-3.177Z" transform="translate(-23.448 -16.116)" fill="#a8adb7"/>
  </g>
</svg>
