<svg xmlns="http://www.w3.org/2000/svg" width="14.087" height="12.522" viewBox="0 0 14.087 12.522">
  <path id="Icon_awesome-map-marked-alt" data-name="Icon awesome-map-marked-alt" d="M7.044,0A3.082,3.082,0,0,0,3.962,3.082c0,1.376,2.014,3.884,2.786,4.794a.386.386,0,0,0,.592,0c.772-.91,2.786-3.418,2.786-4.794A3.082,3.082,0,0,0,7.044,0Zm0,4.109A1.027,1.027,0,1,1,8.071,3.082,1.027,1.027,0,0,1,7.044,4.109ZM.492,5.282A.783.783,0,0,0,0,6.008V12.13a.391.391,0,0,0,.537.363l3.377-1.537v-5.7a7.407,7.407,0,0,1-.52-1.135ZM7.044,8.8a1.169,1.169,0,0,1-.893-.415C5.67,7.814,5.159,7.168,4.7,6.505v4.451l4.7,1.565V6.506c-.463.663-.974,1.309-1.455,1.876A1.169,1.169,0,0,1,7.044,8.8Zm6.507-4.855L10.174,5.479v7.044L13.6,11.154a.783.783,0,0,0,.492-.727V4.305A.391.391,0,0,0,13.551,3.942Z" fill="#fff"/>
</svg>
