<svg id="Password" xmlns="http://www.w3.org/2000/svg" width="12.51" height="16.261" viewBox="0 0 12.51 16.261">
  <path id="Path_27547" data-name="Path 27547" d="M50.312,644.322H40.764a1.478,1.478,0,0,0-1.478,1.478v7.05a1.478,1.478,0,0,0,1.478,1.478h9.553A1.478,1.478,0,0,0,51.8,652.85V645.8a1.478,1.478,0,0,0-1.484-1.478Zm-4.132,5.133a.655.655,0,0,1,.019.154v1.265a.662.662,0,1,1-1.325,0v-1.265a.655.655,0,0,1,.02-.158,1.257,1.257,0,1,1,1.286,0Z" transform="translate(-39.286 -638.068)" fill="#ccc"/>
  <path id="Path_27548" data-name="Path 27548" d="M229.734,29.267a4.175,4.175,0,0,0-1.446-.249,4.552,4.552,0,0,0-1.512.249c-2.2.8-3,2.777-2.89,5.393h1.827c-.1-1.8.363-3.018,1.5-3.537a2.513,2.513,0,0,1,2.081,0c1.138.519,1.6,1.733,1.5,3.537h1.826C232.732,32.044,231.936,30.068,229.734,29.267Z" transform="translate(-222.001 -29.018)" fill="#ccc"/>
</svg>
