<svg xmlns="http://www.w3.org/2000/svg" width="45" height="45" viewBox="0 0 45 45">
  <g id="firstname_basicinfo_signup" transform="translate(-29 -217)">
    <path id="Path_18" data-name="Path 18" d="M13,0H32A13,13,0,0,1,45,13V32A13,13,0,0,1,32,45H13A13,13,0,0,1,0,32V13A13,13,0,0,1,13,0Z" transform="translate(29 217)" fill="#3f3f3f" opacity="0"/>
    <g id="Group_20308" data-name="Group 20308" transform="translate(-1 -14)">
      <path id="Path_27560" data-name="Path 27560" d="M18.327,5.632H3.617A1.458,1.458,0,0,0,2.25,7.159v7.736a1.458,1.458,0,0,0,1.367,1.527h14.71a1.458,1.458,0,0,0,1.367-1.527V7.159A1.458,1.458,0,0,0,18.327,5.632ZM5.443,15.03h-1.4a.613.613,0,0,1,0-1.218h1.4a.613.613,0,0,1,0,1.218Zm0-6.787h-1.4a.613.613,0,0,1,0-1.218h1.4a.613.613,0,0,1,0,1.218Zm5.529,6.265a3.317,3.317,0,0,1-3.115-3.481,3.317,3.317,0,0,1,3.115-3.481,3.317,3.317,0,0,1,3.115,3.481A3.317,3.317,0,0,1,10.972,14.508Zm6.931.522H16.5a.613.613,0,0,1,0-1.218h1.4a.613.613,0,0,1,0,1.218Zm0-6.787H16.5a.613.613,0,0,1,0-1.218h1.4a.613.613,0,0,1,0,1.218Z" transform="translate(41.75 242.369)" fill="#ffaf00"/>
      <path id="Path_27561" data-name="Path 27561" d="M18.885,13.064a2.306,2.306,0,1,1-2.306-2.306,2.306,2.306,0,0,1,2.306,2.306Z" transform="translate(36.142 240.414)" fill="#ffe3a6"/>
    </g>
  </g>
</svg>
