<svg xmlns="http://www.w3.org/2000/svg" width="477.976" height="536.04" viewBox="0 0 477.976 536.04">
  <g id="Vector" transform="translate(-8124.518 -3933.007)">
    <path id="Path_27564" data-name="Path 27564" d="M897.111,269s10.106,11.874.884,29.559l-21.1-18.19S891.174,270.011,897.111,269Z" transform="translate(7432.529 3810.531)" fill="#2e2e2e"/>
    <ellipse id="Ellipse_269" data-name="Ellipse 269" cx="53.308" cy="57.729" rx="53.308" ry="57.729" transform="translate(8238.563 4088.373)" fill="#c87c43"/>
    <path id="Path_27565" data-name="Path 27565" d="M1028.215,562.9c.505-5.558,0-22.359-6.569-41.433-6.7-19.075-17.306-32.97-25.138-44.844-14.148-21.348-23.875-50.15-23.875-50.15,5.432,1.137,14.653,1.516,21.348,3.158,12.758,3.158,30.949,1.39,41.433-.884-1.011-2.653-2.021-5.305-2.905-7.958a125.713,125.713,0,0,1-5.053-22.485c-.379-2.4-.632-4.926-1.011-7.327-16.3.632-46.739-8.464-65.182-16.043-6.569-2.653-15.285-7.706-28.422-10.611-4.169-.884-24.254-1.137-26.275,2.274-3.032,4.926-5.179,8.337-10.232,10.99-15.285,7.958-19.706,6.442-29.938,3.411-5.684-1.642-6.063-7.453-11.369-6.7-15.916,2.274-41.686,17.18-41.686,34.865-1.895,15.538,9.853,35.749,16.169,49.9,8.59,19.2,11.748,35.623,22.991,53.055,16.169,25.264,5.684,45.6,0,60.255,0,0,72.761,36.128,131.879,26.654C984.381,599.276,1024.046,604.2,1028.215,562.9Z" transform="translate(7415.747 3835.47)" fill="#eff9fe"/>
    <path id="Path_27566" data-name="Path 27566" d="M888.281,360.5l4.421,15.032s-2.148,4.295-14.653,10.485-25.138-2.147-26.148-10.485V363.658S872.238,370.985,888.281,360.5Z" transform="translate(7425.949 3834.615)" fill="#c87c43"/>
    <path id="Path_27567" data-name="Path 27567" d="M861.842,427.88s36,65.561,39.917,76.677,28.422,83.877,27.917,94.741c0,0-19.58,3.032-32.591-2.274,0,0-3.916-91.709-18.443-121.142-14.527-29.307-18.443-44.844-18.443-44.844L905.928,403.5Z" transform="translate(7428.133 3845.933)" fill="#d2e9f0"/>
    <g id="Group_20315" data-name="Group 20315" transform="translate(8403.285 4045.424)">
      <path id="Path_27568" data-name="Path 27568" d="M979.5,305.476V294.739H951.2V283.5l27.159-40.3h14.78v38.907h7.579v12.632h-7.579V305.35H979.5Zm0-41.812h-.884l-12.253,18.317H979.5Z" transform="translate(-951.2 -241.684)" fill="#2e2e2e" stroke="#e3e3e3" stroke-width="1"/>
      <path id="Path_27569" data-name="Path 27569" d="M1023.454,307.182A23.624,23.624,0,0,1,1004,297.96a32.067,32.067,0,0,1-5.306-10.358,42.606,42.606,0,0,1-1.895-13.011,43.194,43.194,0,0,1,1.895-13.011A33.417,33.417,0,0,1,1004,251.221a25.519,25.519,0,0,1,30.443-6.821,25.89,25.89,0,0,1,8.463,6.821,32.073,32.073,0,0,1,5.306,10.358,42.611,42.611,0,0,1,1.895,13.011,43.2,43.2,0,0,1-1.895,13.011,33.427,33.427,0,0,1-5.306,10.358,23.529,23.529,0,0,1-8.463,6.821A23.833,23.833,0,0,1,1023.454,307.182Zm0-12.758a10.494,10.494,0,0,0,5.558-1.516,11.635,11.635,0,0,0,4.042-4.169,17.889,17.889,0,0,0,2.526-6.316,31.338,31.338,0,0,0,.884-7.958,32.011,32.011,0,0,0-.884-7.958,22.011,22.011,0,0,0-2.526-6.316,14.187,14.187,0,0,0-4.042-4.169,10.185,10.185,0,0,0-5.558-1.516,10.5,10.5,0,0,0-5.558,1.516,11.637,11.637,0,0,0-4.042,4.169,17.888,17.888,0,0,0-2.526,6.316,31.35,31.35,0,0,0-.884,7.958,32.023,32.023,0,0,0,.884,7.958,22.01,22.01,0,0,0,2.526,6.316,14.184,14.184,0,0,0,4.042,4.169A10.5,10.5,0,0,0,1023.454,294.423Z" transform="translate(-939.197 -242)" fill="#2e2e2e" stroke="#e3e3e3" stroke-width="1"/>
      <path id="Path_27570" data-name="Path 27570" d="M1073.4,305.476V294.739h-28.3V283.5l27.159-40.3h14.78v38.907h7.579v12.632h-7.579V305.35H1073.4Zm0-41.812h-.884l-12.38,18.443h13.137V263.664Z" transform="translate(-926.484 -241.684)" fill="#2e2e2e" stroke="#e3e3e3" stroke-width="1"/>
    </g>
    <path id="Path_27571" data-name="Path 27571" d="M851.636,299.391s28.928,2.779,53.434-13.516,15.411-26.4,6.316-26.654-51.792-15.79-85.393,4.8-23.5,45.6-23.5,45.6-4.295,51.413,53.813,81.982c.758-4.169-8.969-4.927-9.6-10.864-.253-1.895.505-4.421-.884-5.305-8.211-5.053-11.369-10.232-12.127-15.664-.505-3.158-.126-6.19,2.274-8.211,5.685-4.8,19.074,5.179,19.074,5.179s-8.337-10.358,1.137-21.1,4.169-15.285,4.169-15.285Z" transform="translate(7412.57 3806.415)" fill="#2e2e2e"/>
    <g id="Group_20316" data-name="Group 20316" transform="translate(8124.518 3933.007)">
      <path id="Path_27572" data-name="Path 27572" d="M819.552,358.867,791.761,318.95s-31.833,16.8-53.434-10.737,8.463-45.981,8.463-45.981-32.97-55.455,27.791-66.319c0,0,10.99-41.56,54.318-41.812s39.665,19.959,39.665,19.959,23.875-7.074,35.875,10.99c12,17.938,14.274,43.076-5.053,59.624l26.149,40.549C925.535,285.1,868.691,302.907,819.552,358.867Z" transform="translate(-730.518 -152.72)" fill="#eff9fe"/>
      <path id="Path_27573" data-name="Path 27573" d="M800.5,157.04s32.338.758,40.675,37.517c0,0,30.317,2.147,28.422,26.275s-31.959,42.823-57.729,31.959c0,0,6.7,22.738-9.727,30.317S771.7,277.8,771.7,277.8s23.5,22.99,7.958,41.939l32.591,42.57s46.739-54.7,102.573-76.93l-24.633-39.665S910.78,219.7,900.8,196.705c-9.853-22.99-30.317-26.148-42.191-22.99C858.483,173.841,854.188,142.008,800.5,157.04Z" transform="translate(-719.679 -153.007)" fill="#d2e9f0"/>
      <path id="Path_27574" data-name="Path 27574" d="M862,251.8c-11.243,1.39-40.549,18.7-69.1,59.75l9.221,13.264s44.97-48,82.361-61.9c0,0-3.537-2.4-8.211-4.927-.253-.126-43.076,22.611-55.455,34.865,18.317-26.275,50.149-37.391,49.9-37.517C865.914,253.316,866.924,253.063,862,251.8Z" transform="translate(-714.098 -127.003)" fill="#eff9fe"/>
    </g>
    <g id="Group_20317" data-name="Group 20317" transform="translate(8437.394 4113.721)">
      <path id="Path_27575" data-name="Path 27575" d="M1009.8,316.7c0,.253.126.379,0,0Z" transform="translate(-969.883 -290.635)" fill="#fcc394"/>
      <path id="Path_27576" data-name="Path 27576" d="M998.538,442.389c-17.811,10.485-20.338-36.128-20.338-36.128s21.348-45.981,26.78-56.466c3.537-6.821,8.337-22.738,8.59-27.917a.124.124,0,0,1,.126-.126,23.6,23.6,0,0,1-.884-2.779c-1.769-5.684-13.516-9.1-14.148-15.032,0-.632,10.611-3.537,10.99-4.042a1.826,1.826,0,0,1,1.263-.884,2.068,2.068,0,0,1,1.516.253,1.777,1.777,0,0,1,.758.884c2.021.253,4.042.505,5.937.632a39.517,39.517,0,0,0,6.7-.126,2.15,2.15,0,0,0,.884-.126h.252c.505,0,1.137-.126,1.642-.126a29.51,29.51,0,0,0,3.284-.505,40.194,40.194,0,0,0,6.443-1.642c.505-.126,1.011-.379,1.642-.505.253-.126.505-.126.758-.253.126,0,.253-.126.379-.126h0a30.857,30.857,0,0,0,3.032-1.263c.758-.379,24.885,1.895,25.643,2.147,11.5,2.653,7.327,4.421,6.948,5.179-.884,2.274-33.223,6.19-36.254,12.632-1.137,2.653-3.284,6.063-5.305,17.306-1.642,11.116-11.243,94.488-36.633,109.015" transform="translate(-978.2 -296.066)" fill="#e99956"/>
    </g>
    <path id="Path_27577" data-name="Path 27577" d="M863.52,360.4c-.126,0-.126.253,0,.253S863.646,360.4,863.52,360.4Z" transform="translate(7428.982 3834.588)" fill="#e8a378"/>
    <path id="Path_27578" data-name="Path 27578" d="M904.679,505.426a2.135,2.135,0,0,0-.884-1.263,4.534,4.534,0,0,0-1.263-.884,3.363,3.363,0,0,0-1.516-.379c-.379,0-.758.126-1.011.126a3.6,3.6,0,0,0-1.769,1.011c-.253.253-.379.505-.632.758a3.706,3.706,0,0,0-.505,2.021v.632a3.363,3.363,0,0,0,.379,1.516,2.136,2.136,0,0,0,.884,1.263,4.539,4.539,0,0,0,1.263.884,3.363,3.363,0,0,0,1.516.379c.379,0,.758-.126,1.01-.126a3.6,3.6,0,0,0,1.768-1.01c.253-.253.379-.505.632-.758a3.707,3.707,0,0,0,.505-2.021v-.632A2.693,2.693,0,0,0,904.679,505.426Z" transform="translate(7437.847 3872.096)" fill="#c2c2c2"/>
    <path id="Path_27579" data-name="Path 27579" d="M984.084,378.5s10.864,42.57,15.538,43.833c0,0-13.769,11.5-24.38,3.032s-9.348-45.6-3.032-45.1A26.717,26.717,0,0,0,984.084,378.5Z" transform="translate(7456.34 3839.352)" fill="#d2e9f0"/>
    <path id="Path_27580" data-name="Path 27580" d="M1155.831,298.954c0-3.032-2.274-6.442-5.684-6.316-27.791.379-55.455.632-83.246.632s-55.455-.253-83.246-.758c-15.537-.253-31.2-.632-46.739-1.011-3.158-.126-6.316,2.274-6.316,5.684,0,3.158,2.274,6.316,5.684,6.316,27.791.758,55.455,1.263,83.246,1.516s55.455.379,83.246.126c15.538-.126,31.2-.253,46.739-.505C1152.546,304.512,1155.7,302.365,1155.831,298.954Z" transform="translate(7446.664 3816.452)" fill="#b3b3b3"/>
    <path id="Path_27581" data-name="Path 27581" d="M887.1,359.7" transform="translate(7435.214 3834.404)" fill="#d24d3e"/>
    <g id="Group_20318" data-name="Group 20318" transform="translate(8362.23 4292.17)">
      <path id="Path_27582" data-name="Path 27582" d="M1076.42,506.137c-1.642-4.042-3.663-7.832-5.179-10.737-8.716-16.043-20.969-29.938-37.644-38.023-1.39-.632-2.653-1.263-4.042-1.895a79.032,79.032,0,0,0-19.959-5.306c-.253,0-1.768-4.8-1.895-5.179a14.11,14.11,0,0,0-4.8-6.063,10.481,10.481,0,0,0-9.1-1.011c-5.053,1.768-6.695,5.306-8.464,9.853-.505,1.263.126,1.642-.884,2.526-1.516,1.39-5.684,1.642-7.453,2.147a103,103,0,0,0-10.485,3.663c-25.643,10.99-43.2,35.37-46.36,63.034-1.263,10.485,1.263,21.727,13.643,21.475,43.455-.884,87.035-1.642,130.49-2.526,3.158,0,6.948-.379,9.727-2.274C1083.494,529.506,1080.841,516.748,1076.42,506.137Z" transform="translate(-918.391 -437.332)" fill="#e3e3e3"/>
      <path id="Path_27583" data-name="Path 27583" d="M1054.956,514.792a152.242,152.242,0,0,0-6.7-16.3,92.15,92.15,0,0,0-7.074-12.379,138.059,138.059,0,0,0-10.484-13.9,128.788,128.788,0,0,0-9.98-10.358l-3.031-2.653a48.194,48.194,0,0,0-4.042-3.032,23.263,23.263,0,0,0-4.8-2.147,19.153,19.153,0,0,0-2.653-.379,15.477,15.477,0,0,0-2.4-.253,22.178,22.178,0,0,0-4.927.758,17.814,17.814,0,0,0-6.821,4.042l-.253.253a13.414,13.414,0,0,1-1.137,1.39l-1.137,1.516a23.313,23.313,0,0,0-1.642,3.663,5.068,5.068,0,0,0-.379,1.895c.253.379.632.758.884,1.137.505,1.011,1.01,2.147,1.516,3.158.379.126.758.379,1.137.505a34.29,34.29,0,0,1,4.421,3.032,9.777,9.777,0,0,1,2.021.884,10.7,10.7,0,0,1,2.4,1.768,17.342,17.342,0,0,1,3.158,3.663l.126.126h0c1.516,1.39,2.905,2.779,4.3,4.295a97.541,97.541,0,0,1,6.695,7.706,110.765,110.765,0,0,1,10.864,17.685c.632,1.389,1.389,2.779,2.021,4.168.884,2.147,1.642,4.295,2.4,6.569a8.983,8.983,0,0,0,2.4,4.421,10.583,10.583,0,0,0,3.663,3.411,8.708,8.708,0,0,0,4.927,1.516,10.242,10.242,0,0,0,5.179-.253c1.011-.379,2.021-.884,3.158-1.263a12.758,12.758,0,0,0,4.674-4.674c.379-1.011.884-2.147,1.263-3.158A10.536,10.536,0,0,0,1054.956,514.792Z" transform="translate(-900.589 -433.103)" fill="#e0e0e0"/>
      <path id="Path_27584" data-name="Path 27584" d="M1045.865,504.052c-1.516-4.421-3.158-8.842-5.053-13.137A81.178,81.178,0,0,0,1035,480.051c-4.8-7.327-10.99-13.9-18.7-18.317a47.029,47.029,0,0,0-7.2-3.411,36.62,36.62,0,0,0-6.063-1.769,5.68,5.68,0,0,0-2.905-.126,5.552,5.552,0,0,0-2.779.884,7.4,7.4,0,0,0,1.769,13.516,32.117,32.117,0,0,1,5.937,1.768,39.987,39.987,0,0,1,7.453,4.421,53.718,53.718,0,0,1,7.579,7.579,70.69,70.69,0,0,1,8.337,14.78c1.137,2.905,2.274,5.811,3.284,8.842a7.879,7.879,0,0,0,3.411,4.421,5.55,5.55,0,0,0,2.779.884,5.678,5.678,0,0,0,2.906-.126,7.486,7.486,0,0,0,4.421-3.411C1045.991,507.968,1046.5,505.947,1045.865,504.052Z" transform="translate(-898.952 -432.342)" fill="#f5f5f5"/>
      <path id="Path_27585" data-name="Path 27585" d="M984.64,447.8s-60.887,39.16-28.675,89.941c0,0-19.2.758-26.148,0-7.074-.758-18.19-15.159-4.927-42.065S954.07,453.232,984.64,447.8Z" transform="translate(-918.699 -434.577)" fill="#cfcfcf"/>
    </g>
    <path id="Path_27586" data-name="Path 27586" d="M926.943,403.828h0a25.33,25.33,0,0,1-13.769-4.295,10.433,10.433,0,0,1-4.168-5.432c-.758-2.526-.884-2.4-.126-4.926a46.316,46.316,0,0,0,2.274-8.211c.505-3.411,1.01-6.7-.379-10.358-1.516-4.169-2.779-6.063-6.063-7.706-1.516.884-3.411,0-5.811.505-2.147.379-4.169,2.905-4.674,3.411.253,1.011,2.4,4.674-.505,7.958-8.085,9.348-16.422,10.737-28.549,7.706a19.43,19.43,0,0,1-6.063-2.274c-2.147-1.137-2.147-1.895-2.779-3.663-.379-1.011-.379-3.916-.505-4.927-2.526.379-9.6,1.137-12.38,2.148-2.4.884-3.79,2.526-6.063,3.916-.884,2.905-.126,7.2.884,10.358.758,2.653,6.19,9.853,7.958,11.622,2.653,2.653,8.337,6.569,12.632,7.327,1.263.253,2.653.126,3.663,1.011,1.768,1.516,1.642,5.179,1.768,7.327.379,7.832-1.516,15.538-4.547,22.738-1.642,3.79-4.8,6.7-6.442,10.485,3.663-.253,7.832-2.779,11.116-4.295,4.295-2.148,9.1-4.295,12.758-7.453a35.364,35.364,0,0,0,9.474-12.506,31.453,31.453,0,0,0,2.526-7.579c.126-.884,1.516-6.442.884-6.948,2.779,2.021,4.8,4.421,8.085,5.937,11.874,5.432,28.549-.884,34.233-12.632a.124.124,0,0,1,.126-.126C932.122,403.828,927.953,403.828,926.943,403.828Z" transform="translate(7422.025 3835.246)" fill="#f8bb37"/>
    <path id="Path_27587" data-name="Path 27587" d="M843.644,373.5s1.642,17.053,24.759,21.348,41.433-12.38,32.338-29.18l1.39-1.768s7.832,8.464,5.811,18.443-32.97,29.559-54.065,18.569-13.39-25.769-13.39-25.769Z" transform="translate(7422.583 3835.51)" fill="#fbc34a"/>
    <path id="Path_27588" data-name="Path 27588" d="M866.137,397.974s3.284,17.18-5.937,27.159c0,0,10.232-4.8,14.779-29.433Z" transform="translate(7428.133 3843.879)" fill="#fbc34a"/>
    <path id="Path_27589" data-name="Path 27589" d="M892.279,386.5s5.432,19.2,24.38,13.516c0,0-18.19,6.316-31.959-8.337Z" transform="translate(7434.582 3841.458)" fill="#fbc34a"/>
    <path id="Path_27590" data-name="Path 27590" d="M840.886,375.414s4.421,23.622,25.643,27.033c21.222,3.284,44.718-13.011,40.549-27.033a45.794,45.794,0,0,0-6.442-12s2.905-1.137,4.548-.126,11.5,6.695,4.042,25.012-41.433,21.1-49.644,19.2-24.633-10.99-22.232-29.433Z" transform="translate(7422.057 3835.238)" fill="#dcb869"/>
    <path id="Path_27591" data-name="Path 27591" d="M904.339,387.028a16.211,16.211,0,0,0,.126-2.779c-.126-3.916-1.263-5.811-4.042-8.464-1.263-1.263-5.558-3.411-7.579-3.284-2.905.126-4.169.126-6.19,1.516-9.221,6.316-20.969,6.7-31.454,4.295,2.4.505,7.074,7.453,7.327,9.348.505,3.663.632,6.19-.884,9.853a24.9,24.9,0,0,1-5.684,7.453c.379-.253,2.274.253,2.779.379,5.937.379,11.874-.758,17.685-2.147a68.091,68.091,0,0,0,16.927-6.19,38.932,38.932,0,0,0,6.316-4.169c1.642-1.263,3.158-2.274,4.169-3.916C903.581,388.923,904.213,387.533,904.339,387.028Z" transform="translate(7426.817 3837.772)" fill="#ffaf00"/>
    <path id="Path_27592" data-name="Path 27592" d="M926.745,398.579S908.3,414.5,890.491,393.4l-9.348,2.905s-4.674,35.875-30.443,44.465c0,0,19.074-4.8,27.412-16.3,8.337-11.369,9.221-17.432,8.464-22.611C886.449,401.864,902.492,426.244,926.745,398.579Z" transform="translate(7425.633 3843.274)" fill="#ffaf00"/>
    <path id="Path_27593" data-name="Path 27593" d="M1044.6,509.666c-.253-.632-.505-1.137-.758-1.769a6.7,6.7,0,0,0-2.653-2.653c-.379-.253-.884-.379-1.263-.632a5.551,5.551,0,0,0-2.779-.884,5.679,5.679,0,0,0-2.905.126,5.968,5.968,0,0,0-2.526,1.263,7.234,7.234,0,0,0-1.895,2.021l-.758,1.769a6.885,6.885,0,0,0,0,3.916c.253.632.505,1.137.758,1.768a6.7,6.7,0,0,0,2.653,2.653c.379.253.884.379,1.263.632a5.55,5.55,0,0,0,2.779.884,5.679,5.679,0,0,0,2.906-.126,5.968,5.968,0,0,0,2.526-1.263,7.233,7.233,0,0,0,1.895-2.021c.252-.632.505-1.137.758-1.768A6.884,6.884,0,0,0,1044.6,509.666Z" transform="translate(7472.504 3872.278)" fill="#f5f5f5"/>
    <circle id="Ellipse_270" data-name="Ellipse 270" cx="4.169" cy="4.169" r="4.169" transform="translate(8302.481 4277.981)" fill="#cfcfcf"/>
    <path id="Path_27594" data-name="Path 27594" d="M887.937,443.469a4.169,4.169,0,1,1-4.169-4.169A4.291,4.291,0,0,1,887.937,443.469Z" transform="translate(7433.24 3855.356)" fill="#cfcfcf"/>
    <circle id="Ellipse_271" data-name="Ellipse 271" cx="4.169" cy="4.169" r="4.169" transform="translate(8323.197 4311.457)" fill="#cfcfcf"/>
    <circle id="Ellipse_272" data-name="Ellipse 272" cx="4.169" cy="4.169" r="4.169" transform="translate(8333.557 4328.131)" fill="#cfcfcf"/>
    <path id="Path_27595" data-name="Path 27595" d="M919.122,494.5a200.544,200.544,0,0,1,14.527,37.391c-4.421,8.59-28.043,21.222-39.16,21.6,2.526-29.433-1.39-42.949-1.39-42.949Z" transform="translate(7436.793 3869.885)" fill="#fff"/>
    <path id="Path_27596" data-name="Path 27596" d="M990.472,473.823c4.421-5.432,20.338-8.59,24-14.148,3.663-5.432,7.327-15.285,8.716-21.1,1.516-5.811-5.053-9.853-10.232-16.548-5.053-6.7-10.99-.632-18.317,2.274s-17.685,12.127-15.79,25.77c-17.306,19.327-75.919,37.77-93.478,45.1l-8.842-14.148s-31.454,8.842-27.664,33.6c7.074,13.264,17.306,24.127,24.633,26.4,7.453,2.274,7.453,1.516,13.769-1.263C904.7,532.31,985.546,479.887,990.472,473.823Z" transform="translate(7425.067 3850.013)" fill="#e99956"/>
    <path id="Path_27597" data-name="Path 27597" d="M874.993,467.95s-20.464,4.927-29.306,20.717c-1.263,2.274-2.021,13.769-.632,16.043l4.548,7.2a6.566,6.566,0,0,0,11.243-.253c6.569-11.622,18.443-29.433,30.7-31.075C891.541,480.455,885.1,465.676,874.993,467.95Z" transform="translate(7423.952 3862.834)" fill="#d2e9f0"/>
    <path id="Path_27598" data-name="Path 27598" d="M912.792,471.454s-11.874-9.221-16.169,54.95c-4.169,64.171,22.232,74.277,22.232,74.277s-4.548,4.421-37.77,4.421c-12.506,0-26.78,6.316-25.517-28.549,1.263-34.991-15.032-85.14,24.885-94.615C880.58,481.812,905.844,465.769,912.792,471.454Z" transform="translate(7426.323 3863.498)" fill="#fff"/>
    <path id="Path_27599" data-name="Path 27599" d="M875,337.866s11.369-13.137,23.117-4.674" transform="translate(7432.03 3826.679)" fill="none" stroke="#2e2e2e" stroke-linecap="round" stroke-width="2"/>
    <path id="Path_27600" data-name="Path 27600" d="M831.407,333.3s-4.295,4.8,1.769,11.243" transform="translate(7420.167 3827.455)" fill="none" stroke="#eca17c" stroke-linecap="round" stroke-width="1.5"/>
    <path id="Path_27601" data-name="Path 27601" d="M899.827,308.8a11.2,11.2,0,0,1-12.127,1.895" transform="translate(7435.372 3821.007)" fill="none" stroke="#2e2e2e" stroke-linecap="round" stroke-width="2"/>
    <path id="Path_27602" data-name="Path 27602" d="M879.427,313.1a11.2,11.2,0,0,1-12.127,1.895" transform="translate(7430.002 3822.138)" fill="none" stroke="#2e2e2e" stroke-linecap="round" stroke-width="2"/>
  </g>
</svg>
