<svg id="hierarchical-structure" xmlns="http://www.w3.org/2000/svg" width="18.071" height="18.071" viewBox="0 0 18.071 18.071">
  <g id="Group_21107" data-name="Group 21107">
    <path id="Path_27607" data-name="Path 27607" d="M17.425,12.908H16.135V10.326a.645.645,0,0,0-.645-.645H9.681V5.163h3.227a.645.645,0,0,0,.645-.645V.645A.645.645,0,0,0,12.908,0H5.163a.645.645,0,0,0-.645.645V4.518a.645.645,0,0,0,.645.645H8.39V9.681H2.582a.645.645,0,0,0-.645.645v2.582H.645A.645.645,0,0,0,0,13.553v3.872a.645.645,0,0,0,.645.645H4.518a.645.645,0,0,0,.645-.645V13.553a.645.645,0,0,0-.645-.645H3.227V10.972H8.39v1.936H7.1a.645.645,0,0,0-.645.645v3.872a.645.645,0,0,0,.645.645h3.872a.645.645,0,0,0,.645-.645V13.553a.645.645,0,0,0-.645-.645H9.681V10.972h5.163v1.936H13.553a.645.645,0,0,0-.645.645v3.872a.645.645,0,0,0,.645.645h3.872a.645.645,0,0,0,.645-.645V13.553A.645.645,0,0,0,17.425,12.908Z" fill="#a8adb7"/>
  </g>
</svg>
