<svg xmlns="http://www.w3.org/2000/svg" width="18.093" height="18.093" viewBox="0 0 18.093 18.093">
  <g id="firstname_basicinfo_signup" transform="translate(-42.454 -230.454)">
    <g id="Page-1" transform="translate(42.454 230.454)">
      <g id="_010---Secure-Password" data-name="010---Secure-Password">
        <path id="Shape" d="M.9,14.776H2.412v1.809A1.51,1.51,0,0,0,3.92,18.093H14.172a1.51,1.51,0,0,0,1.508-1.508V14.776h1.508a.9.9,0,0,0,.9-.9V10.856a.9.9,0,0,0-.9-.9H15.68V8.142a1.51,1.51,0,0,0-1.508-1.508V5.126a5.126,5.126,0,1,0-10.252,0V6.634A1.51,1.51,0,0,0,2.412,8.142V9.951H.9a.9.9,0,0,0-.9.9v3.015A.9.9,0,0,0,.9,14.776Zm14.172,1.809a.9.9,0,0,1-.9.9H3.92a.9.9,0,0,1-.9-.9V14.776H15.077ZM4.523,5.126a4.523,4.523,0,0,1,9.046,0V6.634H12.363V5.126a3.317,3.317,0,1,0-6.634,0V6.634H4.523ZM6.332,6.634V5.126a2.714,2.714,0,0,1,5.428,0V6.634ZM3.015,8.142a.9.9,0,0,1,.9-.9H14.172a.9.9,0,0,1,.9.9V9.951H3.015ZM.6,10.856a.3.3,0,0,1,.3-.3H17.188a.3.3,0,0,1,.3.3v3.015a.3.3,0,0,1-.3.3H.9a.3.3,0,0,1-.3-.3Z" fill="#858585"/>
        <path id="Shape-2" data-name="Shape" d="M4.05,38.977a.3.3,0,0,0,.418.084l.436-.291v.341a.3.3,0,1,0,.6,0v-.341l.436.291a.3.3,0,1,0,.335-.5l-.529-.352.528-.352a.3.3,0,1,0-.335-.5l-.435.291V37.3a.3.3,0,1,0-.6,0v.341l-.436-.291a.3.3,0,0,0-.335.5l.529.352-.529.352a.3.3,0,0,0-.084.418Z" transform="translate(-2.794 -25.843)" fill="#858585"/>
        <path id="Shape-3" data-name="Shape" d="M15.05,38.977a.3.3,0,0,0,.418.084l.436-.291v.341a.3.3,0,1,0,.6,0v-.341l.436.291a.3.3,0,1,0,.335-.5l-.529-.352.528-.352a.3.3,0,1,0-.335-.5l-.435.291V37.3a.3.3,0,1,0-.6,0v.341l-.436-.291a.3.3,0,0,0-.335.5l.529.352-.528.352a.3.3,0,0,0-.084.418Z" transform="translate(-10.477 -25.843)" fill="#858585"/>
        <path id="Shape-4" data-name="Shape" d="M37.05,38.977a.3.3,0,0,0,.418.084l.436-.291v.341a.3.3,0,1,0,.6,0v-.341l.436.291a.3.3,0,0,0,.335-.5l-.529-.352.528-.352a.3.3,0,1,0-.335-.5l-.435.291V37.3a.3.3,0,1,0-.6,0v.341l-.436-.291a.3.3,0,1,0-.335.5l.529.352-.528.352a.3.3,0,0,0-.084.418Z" transform="translate(-25.843 -25.843)" fill="#858585"/>
        <path id="Shape-5" data-name="Shape" d="M26.05,38.977a.3.3,0,0,0,.418.084l.436-.291v.341a.3.3,0,1,0,.6,0v-.341l.436.291a.3.3,0,1,0,.335-.5l-.529-.352.528-.352a.3.3,0,0,0-.335-.5l-.435.291V37.3a.3.3,0,1,0-.6,0v.341l-.436-.291a.3.3,0,0,0-.335.5l.529.352-.528.352a.3.3,0,0,0-.084.418Z" transform="translate(-18.16 -25.843)" fill="#858585"/>
        <path id="Shape-6" data-name="Shape" d="M13.206,26h-.9a.3.3,0,0,0-.3.3v.9a.3.3,0,1,0,.6,0v-.6h.6a.3.3,0,1,0,0-.6Z" transform="translate(-8.381 -18.16)" fill="#858585"/>
        <path id="Shape-7" data-name="Shape" d="M48.3,43.6h1.809a.3.3,0,0,0,0-.6H48.3a.3.3,0,0,0,0,.6Z" transform="translate(-33.526 -30.034)" fill="#858585"/>
      </g>
    </g>
  </g>
</svg>
