<svg xmlns="http://www.w3.org/2000/svg" width="19.166" height="20.443" viewBox="0 0 19.166 20.443">
  <g id="firstname_basicinfo_signup" transform="translate(-42.25 -229.044)">
    <g id="Layer_2" data-name="Layer 2" transform="translate(40.25 228.044)">
      <path id="Path_27585" data-name="Path 27585" d="M18.784,1H5.659A2.384,2.384,0,0,0,3.278,3.382V4.833H2.639a.639.639,0,0,0,0,1.278h.639V8.666H2.639a.639.639,0,1,0,0,1.278h.639V12.5H2.639a.639.639,0,0,0,0,1.278h.639v2.555H2.639a.639.639,0,0,0,0,1.278h.639v1.451a2.384,2.384,0,0,0,2.382,2.382H18.784a2.384,2.384,0,0,0,2.382-2.382V3.382A2.384,2.384,0,0,0,18.784,1Zm1.1,18.062a1.105,1.105,0,0,1-1.1,1.1H5.659a1.105,1.105,0,0,1-1.1-1.1V17.61h.639a.639.639,0,0,0,0-1.278H4.555V13.777h.639a.639.639,0,1,0,0-1.278H4.555V9.944h.639a.639.639,0,1,0,0-1.278H4.555V6.111h.639a.639.639,0,0,0,0-1.278H4.555V3.382a1.105,1.105,0,0,1,1.1-1.1H18.784a1.105,1.105,0,0,1,1.1,1.1Z" fill="#858585"/>
      <path id="Path_27586" data-name="Path 27586" d="M17.194,13.389A3.194,3.194,0,1,0,14,10.194a3.194,3.194,0,0,0,3.194,3.194Zm0-5.111a1.917,1.917,0,1,1-1.917,1.917A1.917,1.917,0,0,1,17.194,8.278Z" transform="translate(-4.334 -2.167)" fill="#858585"/>
      <path id="Path_27587" data-name="Path 27587" d="M16.111,18A5.117,5.117,0,0,0,11,23.111a.639.639,0,0,0,.639.639h8.944a.639.639,0,0,0,.639-.639A5.117,5.117,0,0,0,16.111,18Zm-3.78,4.472a3.833,3.833,0,0,1,7.56,0Z" transform="translate(-3.25 -6.14)" fill="#858585"/>
    </g>
  </g>
</svg>
