<svg xmlns="http://www.w3.org/2000/svg" width="11.114" height="19.131" viewBox="0 0 11.114 19.131">
  <g id="Group_75" data-name="Group 75" transform="translate(-297 -382)">
    <path id="Path_27" data-name="Path 27" d="M306.822,382h-8.53A1.3,1.3,0,0,0,297,383.292v16.547a1.3,1.3,0,0,0,1.292,1.292h8.53a1.3,1.3,0,0,0,1.292-1.292V383.292A1.3,1.3,0,0,0,306.822,382Zm-5.629.931h2.728a.156.156,0,1,1,0,.312h-2.728a.156.156,0,1,1,0-.312Zm1.364,17.554a.646.646,0,1,1,.646-.646.644.644,0,0,1-.646.646Zm4.657-1.746H297.9V384.05h9.315Zm0,0" transform="translate(0 0)" fill="#ffaf00"/>
  </g>
</svg>
