<svg xmlns="http://www.w3.org/2000/svg" width="14.024" height="21.758" viewBox="0 0 14.024 21.758">
  <g id="concept" transform="translate(-91 0)">
    <path id="Path_27608" data-name="Path 27608" d="M211,482h3.825v1.275H211Z" transform="translate(-114.9 -461.517)" fill="#ccc"/>
    <path id="Path_27609" data-name="Path 27609" d="M212.912,121a1.912,1.912,0,1,0,1.912,1.912A1.914,1.914,0,0,0,212.912,121Zm.637,2.55h-1.275v-1.275h1.275Z" transform="translate(-114.9 -115.858)" fill="#ccc"/>
    <path id="Path_27610" data-name="Path 27610" d="M101.2,13.294a7.012,7.012,0,1,0-6.374,0v2.047H101.2ZM99.767,9.711a3.166,3.166,0,0,1-1.117.466v1.339H97.374V10.177a3.165,3.165,0,0,1-1.117-.466l-.95.95-.9-.9.95-.95a3.166,3.166,0,0,1-.466-1.117H93.55V6.417h1.339A3.166,3.166,0,0,1,95.356,5.3l-.95-.95.9-.9.95.95a3.165,3.165,0,0,1,1.117-.466V2.592h1.275V3.932a3.166,3.166,0,0,1,1.117.466l.95-.95.9.9-.95.95a3.165,3.165,0,0,1,.466,1.117h1.339V7.692h-1.339a3.165,3.165,0,0,1-.466,1.117l.95.95-.9.9Z" transform="translate(0 0)" fill="#ccc"/>
    <path id="Path_27611" data-name="Path 27611" d="M181,391h6.374v2.592H181Z" transform="translate(-86.175 -374.384)" fill="#ccc"/>
  </g>
</svg>
