<svg xmlns="http://www.w3.org/2000/svg" width="12.99" height="12.99" viewBox="0 0 12.99 12.99">
  <g id="Layer1" transform="translate(-2 -2)">
    <path id="Path_27574" data-name="Path 27574" d="M2.928,14.063H6.639a.464.464,0,0,1,0,.928H2.924A.923.923,0,0,1,2,14.067V10.351a.464.464,0,1,1,.928,0Zm11.135,0V10.351a.464.464,0,1,1,.928,0v3.716a.923.923,0,0,1-.924.924H10.351a.464.464,0,1,1,0-.928Zm-11.6-5.1H14.527a.464.464,0,1,0,0-.928H2.464a.464.464,0,0,0,0,.928Zm.464-6.031V6.639a.464.464,0,1,1-.928,0V2.924A.923.923,0,0,1,2.924,2H6.639a.464.464,0,1,1,0,.928Zm11.135,0H10.351a.464.464,0,1,1,0-.928h3.716a.923.923,0,0,1,.924.924V6.639a.464.464,0,0,1-.928,0Z" fill="#fff"/>
    <path id="Path_27575" data-name="Path 27575" d="M15.279,12.259a.691.691,0,0,0-.691-.691h-7.9A.691.691,0,0,0,6,12.259v2.329a.691.691,0,0,0,.691.691h7.9a.691.691,0,0,0,.691-.691Zm0-5.567A.691.691,0,0,0,14.588,6h-7.9A.691.691,0,0,0,6,6.691V9.02a.691.691,0,0,0,.691.691h7.9a.691.691,0,0,0,.691-.691Z" transform="translate(-2.144 -2.144)" fill="#fff"/>
  </g>
</svg>
