<svg id="Edit" xmlns="http://www.w3.org/2000/svg" width="23" height="23" viewBox="0 0 23 23">
  <rect id="Rectangle_1583" data-name="Rectangle 1583" width="23" height="23" rx="5" fill="#048808"/>
  <g id="Group_20621" data-name="Group 20621" transform="translate(3.469 3.469)">
    <g id="gear">
      <g id="Group_20620" data-name="Group 20620">
        <path id="Path_27577" data-name="Path 27577" d="M15.706,6.634l-1.842-.453a6.082,6.082,0,0,0-.425-1.012l.858-1.43a.471.471,0,0,0-.071-.575L12.895,1.833a.469.469,0,0,0-.575-.071l-1.432.858A6.062,6.062,0,0,0,9.882,2.2L9.429.357A.47.47,0,0,0,8.972,0H7.09a.47.47,0,0,0-.456.357S6.32,1.643,6.181,2.2a6.041,6.041,0,0,0-1.068.455L3.628,1.763a.472.472,0,0,0-.575.071L1.723,3.164a.471.471,0,0,0-.071.575L2.57,5.273a6.064,6.064,0,0,0-.371.907L.357,6.634A.47.47,0,0,0,0,7.09V8.972a.47.47,0,0,0,.357.456L2.2,9.882a6.07,6.07,0,0,0,.433,1.029L1.811,12.28a.471.471,0,0,0,.071.575l1.331,1.331a.472.472,0,0,0,.575.071l1.373-.823a6.063,6.063,0,0,0,1.021.43l.453,1.842a.47.47,0,0,0,.456.357H8.972a.47.47,0,0,0,.456-.357l.453-1.842a5.978,5.978,0,0,0,1.044-.443l1.394.836a.471.471,0,0,0,.575-.071l1.331-1.331a.471.471,0,0,0,.071-.575l-.846-1.409a6.027,6.027,0,0,0,.413-.989l1.842-.453a.47.47,0,0,0,.357-.456V7.09A.47.47,0,0,0,15.706,6.634ZM8.031,11.325a3.294,3.294,0,1,1,3.294-3.294A3.3,3.3,0,0,1,8.031,11.325Z" fill="#fff"/>
      </g>
    </g>
  </g>
</svg>
