<svg id="Group_20300" data-name="Group 20300" xmlns="http://www.w3.org/2000/svg" width="32.568" height="31.714" viewBox="0 0 32.568 31.714">
  <g id="motorbike-svgrepo-com">
    <path id="SVGCleanerId_0" d="M132.74,164.837A68.374,68.374,0,0,1,129.8,156h-2.661v3.493c-2.6,1.65-2.6,6.986-2.6,6.986h-4.527c0-2.858-2.286-7.621-3.584-7.621H108v10.8h19.142Z" transform="translate(-104.015 -152.377)" fill="#ffaf00"/>
    <path id="SVGCleanerId_1" d="M204,200.695h1.087c0-3.261-2.553-8.695-4-8.695H200C201.449,192,204,197.434,204,200.695Z" transform="translate(-188.853 -186.003)" fill="#ffaf00"/>
    <path id="SVGCleanerId_2" d="M336.058,156h-1.087a63.425,63.425,0,0,0,3.279,8.837L332,169.654h1.087l6.251-4.817A63.424,63.424,0,0,1,336.058,156Z" transform="translate(-310.612 -152.377)" fill="#ffaf00"/>
    <circle id="Ellipse_256" data-name="Ellipse 256" cx="3.376" cy="3.376" r="3.376" transform="translate(3.376 14.959)" fill="#ffaf00"/>
    <circle id="Ellipse_257" data-name="Ellipse 257" cx="1.688" cy="1.688" r="1.688" transform="translate(5.065 16.647)" fill="#ffaf00"/>
    <g id="Group_20241" data-name="Group 20241" transform="translate(3.868 14.959)">
      <circle id="Ellipse_258" data-name="Ellipse 258" cx="0.844" cy="0.844" r="0.844" transform="translate(0 3.376)" fill="#ffaf00"/>
      <circle id="Ellipse_259" data-name="Ellipse 259" cx="3.376" cy="3.376" r="3.376" transform="translate(21.947 0)" fill="#ffaf00"/>
    </g>
    <circle id="Ellipse_260" data-name="Ellipse 260" cx="1.688" cy="1.688" r="1.688" transform="translate(27.503 16.647)" fill="#ffaf00"/>
    <circle id="Ellipse_261" data-name="Ellipse 261" cx="0.844" cy="0.844" r="0.844" transform="translate(29.191 18.336)" fill="#ffaf00"/>
    <path id="SVGCleanerId_3" d="M343.881,269.667a5.342,5.342,0,0,1,1.449-7.246c2.367-1.639,6.145-1.178,7.608,1.475Z" transform="translate(-320.682 -250.216)" fill="#ffaf00"/>
    <path id="SVGCleanerId_4" d="M350.73,261.606a3.829,3.829,0,0,1,2.566,1.369c.43.509-.257,1.623-.607,1.846l-5.961,3.8a6.789,6.789,0,0,0,.478,1.08l9.057-5.771A5.153,5.153,0,0,0,350.73,261.606Z" transform="translate(-324.006 -250.25)" fill="#ffaf00"/>
    <path id="SVGCleanerId_5" d="M78.129,262.521a6.474,6.474,0,0,0-6.2-6.521c-4.2,0-6.838,1.087-7.925,6.521Z" transform="translate(-64 -244.745)" fill="#ffaf00"/>
    <path id="SVGCleanerId_6" d="M143.384,256q-.415,0-.808.016a6.491,6.491,0,0,1,5.925,6.505h1.087A6.473,6.473,0,0,0,143.384,256Z" transform="translate(-136.181 -244.745)" fill="#ffaf00"/>
    <path id="SVGCleanerId_7" d="M332.71,124h-2.9a1.811,1.811,0,1,0,0,3.623h2.9c1,0,1.087-.811,1.087-1.811S333.71,124,332.71,124Z" transform="translate(-306.416 -123.275)" fill="#ffaf00"/>
    <path id="SVGCleanerId_8" d="M376.362,124h0a4.753,4.753,0,0,0,0,3.623h0c1,0,1.087-.811,1.087-1.811S377.363,124,376.362,124Z" transform="translate(-350.14 -123.275)" fill="#ffaf00"/>
    <path id="SVGCleanerId_9" d="M96.68,162.174a1.087,1.087,0,0,1-1.087,1.087H85.087A1.087,1.087,0,0,1,84,162.174v-1.087A1.087,1.087,0,0,1,85.087,160H95.593a1.087,1.087,0,0,1,1.087,1.087Z" transform="translate(-82.189 -156.391)" fill="#ffaf00"/>
    <path id="SVGCleanerId_10" d="M296.71,118.9a.725.725,0,0,1-.725-.725.848.848,0,0,0-.724-.725h-2.536a.725.725,0,1,1,0-1.449h2.536a2.29,2.29,0,0,1,2.174,2.174A.725.725,0,0,1,296.71,118.9Z" transform="translate(-273.335 -116)" fill="#ffaf00"/>
    <path id="SVGCleanerId_11" d="M93.449,220h-.725c-.6,0-.725.487-.725,1.087s.124,1.087.725,1.087h.725a1.087,1.087,0,1,0,0-2.174Z" transform="translate(-89.464 -211.425)" fill="#ffaf00"/>
    <path id="SVGCleanerId_12" d="M92.362,220.92c-.291.164-.362.551-.362,1s.071.839.362,1c.291-.164.362-.551.362-1S92.654,221.084,92.362,220.92Z" transform="translate(-89.464 -212.263)" fill="#ffaf00"/>
    <g id="Group_20242" data-name="Group 20242" transform="translate(3.985 2.758)">
      <path id="SVGCleanerId_0_1_" d="M132.74,166.082A86.035,86.035,0,0,1,129.8,156h-2.661v3.985c-2.6,1.883-2.6,7.97-2.6,7.97h-4.527c0-3.26-2.286-8.695-3.584-8.695H108v12.317h19.142Z" transform="translate(-108 -156)" fill="#ffaf00"/>
    </g>
    <g id="Group_20243" data-name="Group 20243" transform="translate(11.147 5.997)">
      <path id="SVGCleanerId_1_1_" d="M204,200.695h1.087c0-3.261-2.553-8.695-4-8.695H200C201.449,192,204,197.434,204,200.695Z" transform="translate(-200 -192)" fill="#ffaf00"/>
    </g>
    <g id="Group_20244" data-name="Group 20244" transform="translate(21.387 2.758)">
      <path id="SVGCleanerId_2_1_" d="M336.058,156h-1.087a79.216,79.216,0,0,0,3.279,10.082l-6.251,5.5h1.087l6.251-5.5A79.215,79.215,0,0,1,336.058,156Z" transform="translate(-332 -156)" fill="#ffaf00"/>
    </g>
    <circle id="Ellipse_262" data-name="Ellipse 262" cx="3.376" cy="3.376" r="3.376" transform="translate(3.376 14.959)" fill="#ffaf00"/>
    <circle id="Ellipse_263" data-name="Ellipse 263" cx="1.688" cy="1.688" r="1.688" transform="translate(5.065 16.647)" fill="#fff"/>
    <g id="Group_20245" data-name="Group 20245" transform="translate(25.815 14.959)">
      <circle id="Ellipse_265" data-name="Ellipse 265" cx="3.376" cy="3.376" r="3.376" transform="translate(0 0)" fill="#ffaf00"/>
    </g>
    <circle id="Ellipse_266" data-name="Ellipse 266" cx="1.688" cy="1.688" r="1.688" transform="translate(27.503 16.647)" fill="#fff"/>
    <g id="Group_20246" data-name="Group 20246" transform="translate(22.39 11.252)">
      <path id="SVGCleanerId_3_1_" d="M343.881,269.667a5.342,5.342,0,0,1,1.449-7.246c2.367-1.639,6.145-1.178,7.608,1.475Z" transform="translate(-343.073 -261.468)" fill="#ffaf00"/>
    </g>
    <g id="Group_20247" data-name="Group 20247" transform="translate(22.721 11.255)">
      <path id="SVGCleanerId_4_1_" d="M350.73,261.606a3.829,3.829,0,0,1,2.566,1.369c.43.509-.257,1.623-.607,1.846l-5.961,3.8a6.789,6.789,0,0,0,.478,1.08l9.057-5.771A5.153,5.153,0,0,0,350.73,261.606Z" transform="translate(-346.728 -261.505)" fill="#ffaf00"/>
    </g>
    <g id="Group_20248" data-name="Group 20248" transform="translate(0 11.255)">
      <path id="SVGCleanerId_5_1_" d="M78.129,262.521a6.474,6.474,0,0,0-6.2-6.521c-4.2,0-6.838,1.087-7.925,6.521Z" transform="translate(-64 -256)" fill="#ffaf00"/>
    </g>
    <g id="Group_20249" data-name="Group 20249" transform="translate(6.395 11.255)">
      <path id="SVGCleanerId_6_1_" d="M143.384,256q-.415,0-.808.016a6.491,6.491,0,0,1,5.925,6.505h1.087A6.473,6.473,0,0,0,143.384,256Z" transform="translate(-142.576 -256)" fill="#ffaf00"/>
    </g>
    <g id="Group_20250" data-name="Group 20250" transform="translate(21.584 0.725)">
      <path id="SVGCleanerId_7_1_" d="M332.71,124h-2.9a1.811,1.811,0,1,0,0,3.623h2.9c1,0,1.087-.811,1.087-1.811S333.71,124,332.71,124Z" transform="translate(-328 -124)" fill="#ffaf00"/>
    </g>
    <g id="Group_20251" data-name="Group 20251" transform="translate(25.86 0.725)">
      <path id="SVGCleanerId_8_1_" d="M376.362,124h0a4.753,4.753,0,0,0,0,3.623h0c1,0,1.087-.811,1.087-1.811S377.363,124,376.362,124Z" transform="translate(-376 -124)" fill="#ffaf00"/>
    </g>
    <g id="Group_20252" data-name="Group 20252" transform="translate(1.811 3.609)">
      <path id="SVGCleanerId_9_1_" d="M96.68,162.174a1.087,1.087,0,0,1-1.087,1.087H85.087A1.087,1.087,0,0,1,84,162.174v-1.087A1.087,1.087,0,0,1,85.087,160H95.593a1.087,1.087,0,0,1,1.087,1.087Z" transform="translate(-84 -160)" fill="#ffaf00"/>
    </g>
    <g id="Group_20253" data-name="Group 20253" transform="translate(18.665)">
      <path id="SVGCleanerId_10_1_" d="M296.71,118.9a.725.725,0,0,1-.725-.725.848.848,0,0,0-.724-.725h-2.536a.725.725,0,1,1,0-1.449h2.536a2.29,2.29,0,0,1,2.174,2.174A.725.725,0,0,1,296.71,118.9Z" transform="translate(-292 -116)" fill="#ffaf00"/>
    </g>
    <g id="Group_20254" data-name="Group 20254" transform="translate(2.536 8.575)">
      <path id="SVGCleanerId_11_1_" d="M93.449,220h-.725c-.6,0-.725.487-.725,1.087s.124,1.087.725,1.087h.725a1.087,1.087,0,1,0,0-2.174Z" transform="translate(-92 -220)" fill="#ffaf00"/>
    </g>
    <g id="Group_20255" data-name="Group 20255" transform="translate(2.536 8.657)">
      <path id="SVGCleanerId_12_1_" d="M92.362,220.92c-.291.164-.362.551-.362,1s.071.839.362,1c.291-.164.362-.551.362-1S92.654,221.084,92.362,220.92Z" transform="translate(-92 -220.92)" fill="#ffaf00"/>
    </g>
  </g>
  <line id="Line_116" data-name="Line 116" x2="13.141" transform="translate(9.714 30.714)" fill="none" stroke="#ffaf00" stroke-linecap="round" stroke-width="2"/>
</svg>
