<svg xmlns="http://www.w3.org/2000/svg" width="19.434" height="25.348" viewBox="0 0 19.434 25.348">
  <path id="user-svgrepo-com" d="M24.327,18.119,20.291,16.1a1.111,1.111,0,0,1-.617-1V13.674c.1-.118.2-.253.3-.4a9.669,9.669,0,0,0,1.248-2.45,1.676,1.676,0,0,0,.983-1.528V7.6A1.685,1.685,0,0,0,21.786,6.5V4.248A3.787,3.787,0,0,0,20.9,1.492,5.317,5.317,0,0,0,16.717,0a5.319,5.319,0,0,0-4.186,1.491,3.788,3.788,0,0,0-.884,2.757V6.5A1.685,1.685,0,0,0,11.225,7.6v1.69a1.68,1.68,0,0,0,.632,1.313,8.867,8.867,0,0,0,1.48,3.057v1.4a1.116,1.116,0,0,1-.582.98L8.986,18.1A3.81,3.81,0,0,0,7,21.445v1.368c0,2.005,6.356,2.535,9.717,2.535s9.717-.53,9.717-2.535V21.528A3.791,3.791,0,0,0,24.327,18.119Z" transform="translate(-7)" fill="#d4d4d4"/>
</svg>
