<svg id="Group_20302" data-name="Group 20302" xmlns="http://www.w3.org/2000/svg" width="25.601" height="28.714" viewBox="0 0 25.601 28.714">
  <g id="Group_20298" data-name="Group 20298">
    <path id="dish-svgrepo-com" d="M24.6,45.135a.863.863,0,0,1-.863.863H1.417a.863.863,0,0,1-.863-.863A12.043,12.043,0,0,1,10.761,33.248a1.9,1.9,0,1,1,3.635,0A12.043,12.043,0,0,1,24.6,45.135ZM3.953,44.21Z" transform="translate(0.222 -30.804)" fill="#ffaf00"/>
    <path id="dish-svgrepo-com-2" data-name="dish-svgrepo-com" d="M25.6,47.878v.575a.863.863,0,0,1-.863.863H.863A.863.863,0,0,1,0,48.453v-.575a.863.863,0,0,1,.863-.863H24.738A.863.863,0,0,1,25.6,47.878ZM12.8,30.8Z" transform="translate(0 -30.804)" fill="#ffaf00"/>
  </g>
  <line id="Line_118" data-name="Line 118" x2="13.141" transform="translate(6.5 27.714)" fill="none" stroke="#ffaf00" stroke-linecap="round" stroke-width="2"/>
</svg>
