<svg id="Group_20303" data-name="Group 20303" xmlns="http://www.w3.org/2000/svg" width="24.228" height="26.714" viewBox="0 0 24.228 26.714">
  <g id="_-Product-Icons" data-name="ðŸ”-Product-Icons">
    <g id="ic_fluent_payment_24_filled">
      <path id="_-Color" data-name="ðŸŽ¨-Color" d="M26.238,12.265v6.4A3.335,3.335,0,0,1,23.107,22L22.9,22H5.346a3.335,3.335,0,0,1-3.329-3.132l-.006-.2v-6.4Zm-4.53,4.251H18.676l-.123.008a.91.91,0,0,0,0,1.8l.123.008h3.032l.123-.008a.91.91,0,0,0,0-1.8Zm1.2-11.5a3.335,3.335,0,0,1,3.329,3.132l.006.2v2.091H2.01V8.356A3.335,3.335,0,0,1,5.143,5.027l.2-.006Z" transform="translate(-2.01 -5.021)" fill="#ffaf00"/>
    </g>
  </g>
  <line id="Line_119" data-name="Line 119" x2="13.141" transform="translate(5.216 25.714)" fill="none" stroke="#ffaf00" stroke-linecap="round" stroke-width="2"/>
</svg>
