<svg xmlns="http://www.w3.org/2000/svg" width="22.248" height="26.397" viewBox="0 0 22.248 26.397">
  <g id="restaurant-svgrepo-com" transform="translate(0 0)">
    <g id="Group_20285" data-name="Group 20285">
      <path id="Path_27553" data-name="Path 27553" d="M128.543,105.236a1.079,1.079,0,0,0-1.079,1.08v3.633H125.9v-3.633a1.078,1.078,0,1,0-2.156,0v3.633h-1.569v-3.633a1.078,1.078,0,1,0-2.156,0v6.579c0,.022.005.042.007.065v3.127a1.919,1.919,0,0,0,1.918,1.922h1.606c0,.029,0,.056,0,.086l-.679,11.58a1.955,1.955,0,1,0,3.91,0l-.679-11.58c0-.03,0-.057,0-.086h1.6a1.921,1.921,0,0,0,1.919-1.922v-3.129c0-.021.007-.041.007-.064v-6.579A1.08,1.08,0,0,0,128.543,105.236Z" transform="translate(-120.015 -105.236)" fill="#d4d4d4"/>
      <path id="Path_27554" data-name="Path 27554" d="M275.609,113.016c0-3.586-2.231-7.78-4.981-7.78s-4.982,4.194-4.982,7.78c0,3.008,1.573,4.628,3.706,5.073v.005l-.679,11.58a1.955,1.955,0,1,0,3.911,0l-.68-11.581v-.005C274.034,117.645,275.609,116.026,275.609,113.016Z" transform="translate(-253.361 -105.236)" fill="#d4d4d4"/>
    </g>
    <path id="Path_27555" data-name="Path 27555" d="M270.629,105.236c-2.751,0-4.983,4.187-4.983,7.768,0,3,1.573,4.621,3.706,5.065v.005l-.242,4.119,3.226,3.226-.432-7.345v-.005c2.131-.444,3.706-2.06,3.706-5.065C275.61,109.424,273.378,105.236,270.629,105.236Z" transform="translate(-253.361 -105.236)" fill="#d4d4d4"/>
  </g>
</svg>
