<svg xmlns="http://www.w3.org/2000/svg" width="40.104" height="52.309" viewBox="0 0 40.104 52.309">
  <path id="user-svgrepo-com" d="M42.757,37.391l-8.328-4.164a2.293,2.293,0,0,1-1.274-2.062V28.218c.2-.244.41-.522.627-.829a19.953,19.953,0,0,0,2.575-5.056,3.459,3.459,0,0,0,2.029-3.153V15.693a3.477,3.477,0,0,0-.872-2.289V8.767A7.815,7.815,0,0,0,35.69,3.078C33.9,1.036,30.993,0,27.052,0S20.2,1.036,18.414,3.078A7.817,7.817,0,0,0,16.59,8.767V13.4a3.477,3.477,0,0,0-.872,2.289V19.18a3.467,3.467,0,0,0,1.305,2.71A18.3,18.3,0,0,0,20.077,28.2v2.885a2.3,2.3,0,0,1-1.2,2.023L11.1,37.349A7.862,7.862,0,0,0,7,44.255v2.823c0,4.138,13.116,5.231,20.052,5.231S47.1,51.216,47.1,47.078V44.425A7.823,7.823,0,0,0,42.757,37.391Z" transform="translate(-7)" fill="#cbcbcb"/>
</svg>
