<svg xmlns="http://www.w3.org/2000/svg" width="55.183" height="39.903" viewBox="0 0 55.183 39.903">
  <g id="Group_20284" data-name="Group 20284" transform="translate(-220 -330)">
    <path id="dish-svgrepo-com" d="M52.389,61.694a1.86,1.86,0,0,1-1.86,1.86H2.415a1.86,1.86,0,0,1-1.86-1.86,25.958,25.958,0,0,1,22-25.621,4.092,4.092,0,1,1,7.836,0A25.958,25.958,0,0,1,52.389,61.694ZM7.88,59.7Z" transform="translate(221.12 299.196)" fill="#cbcbcb"/>
    <path id="dish-svgrepo-com-2" data-name="dish-svgrepo-com" d="M55.183,67.607v1.24a1.86,1.86,0,0,1-1.86,1.86H1.86A1.86,1.86,0,0,1,0,68.847v-1.24a1.86,1.86,0,0,1,1.86-1.86H53.323A1.86,1.86,0,0,1,55.183,67.607ZM27.591,30.8Z" transform="translate(220 299.196)" fill="#cbcbcb"/>
  </g>
</svg>
