<svg xmlns="http://www.w3.org/2000/svg" width="66.954" height="44.637" viewBox="0 0 66.954 44.637">
  <g id="motorbike-svgrepo-com" transform="translate(-64 -116)">
    <path id="SVGCleanerId_0" d="M160.171,175.04C157,167.931,153.978,156,153.978,156h-5.612v7.526c-5.473,3.556-5.473,15.052-5.473,15.052h-9.547c0-6.158-4.821-16.42-7.557-16.42H108v23.262h40.366Z" transform="translate(-36.474 -33.158)" fill="#cbcbcb"/>
    <path id="SVGCleanerId_1" d="M207.557,208.42h2.053c0-6.158-4.821-16.42-7.557-16.42H200C202.737,192,207.557,202.263,207.557,208.42Z" transform="translate(-112.738 -63.001)" fill="#cbcbcb"/>
    <path id="SVGCleanerId_2" d="M339.664,156h-2.053s3.019,11.931,6.193,19.04L332,185.419h2.053l11.8-10.379C342.683,167.931,339.664,156,339.664,156Z" transform="translate(-222.16 -33.158)" fill="#cbcbcb"/>
    <circle id="Ellipse_256" data-name="Ellipse 256" cx="6.377" cy="6.377" r="6.377" transform="translate(70.377 147.883)" fill="#cbcbcb"/>
    <circle id="Ellipse_257" data-name="Ellipse 257" cx="3.188" cy="3.188" r="3.188" transform="translate(73.565 151.072)" fill="#cbcbcb"/>
    <g id="Group_20241" data-name="Group 20241" transform="translate(76.753 147.884)">
      <circle id="Ellipse_258" data-name="Ellipse 258" cx="1.594" cy="1.594" r="1.594" transform="translate(0 6.377)" fill="#cbcbcb"/>
      <circle id="Ellipse_259" data-name="Ellipse 259" cx="6.377" cy="6.377" r="6.377" transform="translate(41.448 0)" fill="#cbcbcb"/>
    </g>
    <circle id="Ellipse_260" data-name="Ellipse 260" cx="3.188" cy="3.188" r="3.188" transform="translate(121.389 151.072)" fill="#cbcbcb"/>
    <circle id="Ellipse_261" data-name="Ellipse 261" cx="1.594" cy="1.594" r="1.594" transform="translate(124.578 154.26)" fill="#cbcbcb"/>
    <path id="SVGCleanerId_3" d="M344.6,276.953c-2.763-5.011-1.733-10.589,2.737-13.684s11.6-2.225,14.368,2.785Z" transform="translate(-231.339 -120.587)" fill="#cbcbcb"/>
    <path id="SVGCleanerId_4" d="M354.286,261.7a7.231,7.231,0,0,1,4.847,2.586c.813.961-.485,3.065-1.147,3.486l-11.258,7.174a12.822,12.822,0,0,0,.9,2.04l17.1-10.9C362.692,262.382,358.263,260.948,354.286,261.7Z" transform="translate(-234.369 -120.617)" fill="#cbcbcb"/>
    <path id="SVGCleanerId_5" d="M90.683,268.315C90.683,261.473,85.1,256,78.966,256c-7.937,0-12.914,2.052-14.966,12.315Z" transform="translate(0 -116.054)" fill="#cbcbcb"/>
    <path id="SVGCleanerId_6" d="M144.1,256q-.783,0-1.526.029c5.921.3,11.19,5.641,11.19,12.286h2.052C155.819,261.473,150.235,256,144.1,256Z" transform="translate(-65.136 -116.054)" fill="#cbcbcb"/>
    <path id="SVGCleanerId_7" d="M336.894,124h-5.473a3.421,3.421,0,1,0,0,6.842h5.473c1.89,0,2.053-1.531,2.053-3.421S338.784,124,336.894,124Z" transform="translate(-218.845 -6.632)" fill="#cbcbcb"/>
    <path id="SVGCleanerId_8" d="M376.684,124h-.007a8.976,8.976,0,0,0,0,6.842h.007c1.89,0,2.053-1.531,2.053-3.421S378.574,124,376.684,124Z" transform="translate(-258.634 -6.632)" fill="#cbcbcb"/>
    <path id="SVGCleanerId_9" d="M107.946,164.105a2.052,2.052,0,0,1-2.053,2.053H86.052A2.052,2.052,0,0,1,84,164.105v-2.053A2.052,2.052,0,0,1,86.052,160h19.841a2.052,2.052,0,0,1,2.053,2.053Z" transform="translate(-16.579 -36.474)" fill="#cbcbcb"/>
    <path id="SVGCleanerId_10" d="M300.894,121.473a1.369,1.369,0,0,1-1.369-1.368,1.6,1.6,0,0,0-1.368-1.368h-4.789a1.368,1.368,0,1,1,0-2.737h4.789a4.324,4.324,0,0,1,4.1,4.105A1.369,1.369,0,0,1,300.894,121.473Z" transform="translate(-189.002 0)" fill="#cbcbcb"/>
    <path id="SVGCleanerId_11" d="M94.737,220H93.368c-1.134,0-1.368.919-1.368,2.053s.235,2.052,1.368,2.052h1.368a2.053,2.053,0,1,0,0-4.105Z" transform="translate(-23.211 -86.211)" fill="#cbcbcb"/>
    <path id="SVGCleanerId_12" d="M92.684,220.92c-.55.31-.684,1.041-.684,1.9s.134,1.584.684,1.9c.55-.31.684-1.041.684-1.9S93.234,221.231,92.684,220.92Z" transform="translate(-23.211 -86.974)" fill="#cbcbcb"/>
    <g id="Group_20242" data-name="Group 20242" transform="translate(71.526 122.842)">
      <path id="SVGCleanerId_0_1_" d="M160.171,175.04C157,167.931,153.978,156,153.978,156h-5.612v7.526c-5.473,3.556-5.473,15.052-5.473,15.052h-9.547c0-6.158-4.821-16.42-7.557-16.42H108v23.262h40.366Z" transform="translate(-108 -156)" fill="#cbcbcb"/>
    </g>
    <g id="Group_20243" data-name="Group 20243" transform="translate(87.262 128.999)">
      <path id="SVGCleanerId_1_1_" d="M207.557,208.42h2.053c0-6.158-4.821-16.42-7.557-16.42H200C202.737,192,207.557,202.263,207.557,208.42Z" transform="translate(-200 -192)" fill="#cbcbcb"/>
    </g>
    <g id="Group_20244" data-name="Group 20244" transform="translate(109.84 122.842)">
      <path id="SVGCleanerId_2_1_" d="M339.664,156h-2.053s3.019,11.931,6.193,19.04L332,185.419h2.053l11.8-10.379C342.683,167.931,339.664,156,339.664,156Z" transform="translate(-332 -156)" fill="#cbcbcb"/>
    </g>
    <circle id="Ellipse_262" data-name="Ellipse 262" cx="6.377" cy="6.377" r="6.377" transform="translate(70.377 147.883)" fill="#cbcbcb"/>
    <circle id="Ellipse_263" data-name="Ellipse 263" cx="3.188" cy="3.188" r="3.188" transform="translate(73.565 151.072)" fill="#fff"/>
    <g id="Group_20245" data-name="Group 20245" transform="translate(118.201 147.884)">
      <circle id="Ellipse_265" data-name="Ellipse 265" cx="6.377" cy="6.377" r="6.377" transform="translate(0 0)" fill="#cbcbcb"/>
    </g>
    <circle id="Ellipse_266" data-name="Ellipse 266" cx="3.188" cy="3.188" r="3.188" transform="translate(121.389 151.072)" fill="#fff"/>
    <g id="Group_20246" data-name="Group 20246" transform="translate(111.734 140.881)">
      <path id="SVGCleanerId_3_1_" d="M344.6,276.953c-2.763-5.011-1.733-10.589,2.737-13.684s11.6-2.225,14.368,2.785Z" transform="translate(-343.073 -261.468)" fill="#cbcbcb"/>
    </g>
    <g id="Group_20247" data-name="Group 20247" transform="translate(112.359 140.888)">
      <path id="SVGCleanerId_4_1_" d="M354.286,261.7a7.231,7.231,0,0,1,4.847,2.586c.813.961-.485,3.065-1.147,3.486l-11.258,7.174a12.822,12.822,0,0,0,.9,2.04l17.1-10.9C362.692,262.382,358.263,260.948,354.286,261.7Z" transform="translate(-346.728 -261.505)" fill="#cbcbcb"/>
    </g>
    <g id="Group_20248" data-name="Group 20248" transform="translate(64 139.946)">
      <path id="SVGCleanerId_5_1_" d="M90.683,268.315C90.683,261.473,85.1,256,78.966,256c-7.937,0-12.914,2.052-14.966,12.315Z" transform="translate(-64 -256)" fill="#cbcbcb"/>
    </g>
    <g id="Group_20249" data-name="Group 20249" transform="translate(77.44 139.946)">
      <path id="SVGCleanerId_6_1_" d="M144.1,256q-.783,0-1.526.029c5.921.3,11.19,5.641,11.19,12.286h2.052C155.819,261.473,150.235,256,144.1,256Z" transform="translate(-142.576 -256)" fill="#cbcbcb"/>
    </g>
    <g id="Group_20250" data-name="Group 20250" transform="translate(109.155 117.368)">
      <path id="SVGCleanerId_7_1_" d="M336.894,124h-5.473a3.421,3.421,0,1,0,0,6.842h5.473c1.89,0,2.053-1.531,2.053-3.421S338.784,124,336.894,124Z" transform="translate(-328 -124)" fill="#cbcbcb"/>
    </g>
    <g id="Group_20251" data-name="Group 20251" transform="translate(117.366 117.368)">
      <path id="SVGCleanerId_8_1_" d="M376.684,124h-.007a8.976,8.976,0,0,0,0,6.842h.007c1.89,0,2.053-1.531,2.053-3.421S378.574,124,376.684,124Z" transform="translate(-376 -124)" fill="#cbcbcb"/>
    </g>
    <g id="Group_20252" data-name="Group 20252" transform="translate(67.421 123.526)">
      <path id="SVGCleanerId_9_1_" d="M107.946,164.105a2.052,2.052,0,0,1-2.053,2.053H86.052A2.052,2.052,0,0,1,84,164.105v-2.053A2.052,2.052,0,0,1,86.052,160h19.841a2.052,2.052,0,0,1,2.053,2.053Z" transform="translate(-84 -160)" fill="#cbcbcb"/>
    </g>
    <g id="Group_20253" data-name="Group 20253" transform="translate(102.998 116)">
      <path id="SVGCleanerId_10_1_" d="M300.894,121.473a1.369,1.369,0,0,1-1.369-1.368,1.6,1.6,0,0,0-1.368-1.368h-4.789a1.368,1.368,0,1,1,0-2.737h4.789a4.324,4.324,0,0,1,4.1,4.105A1.369,1.369,0,0,1,300.894,121.473Z" transform="translate(-292 -116)" fill="#cbcbcb"/>
    </g>
    <g id="Group_20254" data-name="Group 20254" transform="translate(68.789 133.789)">
      <path id="SVGCleanerId_11_1_" d="M94.737,220H93.368c-1.134,0-1.368.919-1.368,2.053s.235,2.052,1.368,2.052h1.368a2.053,2.053,0,1,0,0-4.105Z" transform="translate(-92 -220)" fill="#cbcbcb"/>
    </g>
    <g id="Group_20255" data-name="Group 20255" transform="translate(68.789 133.946)">
      <path id="SVGCleanerId_12_1_" d="M92.684,220.92c-.55.31-.684,1.041-.684,1.9s.134,1.584.684,1.9c.55-.31.684-1.041.684-1.9S93.234,221.231,92.684,220.92Z" transform="translate(-92 -220.92)" fill="#cbcbcb"/>
    </g>
  </g>
</svg>
