<svg xmlns="http://www.w3.org/2000/svg" width="39.447" height="46.802" viewBox="0 0 39.447 46.802">
  <g id="restaurant-svgrepo-com" transform="translate(-12.62 -11.064)">
    <g id="Group_20285" data-name="Group 20285" transform="translate(12.62 11.064)">
      <path id="Path_27553" data-name="Path 27553" d="M135.161,105.236a1.915,1.915,0,0,0-1.917,1.914v6.442h-2.785V107.15a1.914,1.914,0,0,0-3.828,0v6.442h-2.786V107.15a1.915,1.915,0,0,0-3.83,0v11.664c0,.039.009.075.012.115v5.545a3.405,3.405,0,0,0,3.406,3.407h2.852c0,.051,0,.1,0,.152l-1.206,20.531a3.472,3.472,0,1,0,6.944,0l-1.206-20.531c0-.053,0-.1,0-.152h2.848a3.409,3.409,0,0,0,3.408-3.407v-5.547c0-.036.012-.073.012-.113V107.15A1.916,1.916,0,0,0,135.161,105.236Z" transform="translate(-120.015 -105.236)" fill="#cbcbcb"/>
      <path id="Path_27554" data-name="Path 27554" d="M283.34,119.031c0-6.358-3.961-13.795-8.847-13.795s-8.848,7.436-8.848,13.795c0,5.333,2.794,8.206,6.582,8.994v.009l-1.206,20.531a3.472,3.472,0,0,0,6.945,0l-1.207-20.533v-.009C280.543,127.237,283.34,124.366,283.34,119.031Z" transform="translate(-243.893 -105.236)" fill="#cbcbcb"/>
    </g>
    <path id="Path_27555" data-name="Path 27555" d="M274.495,105.236c-4.886,0-8.849,7.436-8.849,13.795,0,5.333,2.794,8.206,6.582,8.994v.009l-.429,7.314,5.728,5.728-.767-13.044v-.009c3.785-.788,6.582-3.658,6.582-8.994C283.34,112.673,279.378,105.236,274.495,105.236Z" transform="translate(-231.274 -94.172)" fill="#cbcbcb"/>
  </g>
</svg>
