<svg xmlns="http://www.w3.org/2000/svg" width="14.401" height="12.601" viewBox="0 0 14.401 12.601">
  <g id="store" transform="translate(0 -32)">
    <g id="Group_20593" data-name="Group 20593" transform="translate(0 32)">
      <g id="Group_20592" data-name="Group 20592">
        <path id="Path_27565" data-name="Path 27565" d="M14.387,35.941l-.815-3.26A.9.9,0,0,0,12.7,32H1.7a.9.9,0,0,0-.874.681l-.815,3.26A.44.44,0,0,0,0,36.05,2.2,2.2,0,0,0,2.138,38.3a2.1,2.1,0,0,0,1.688-.87,2.071,2.071,0,0,0,3.375,0,2.071,2.071,0,0,0,3.375,0,2.1,2.1,0,0,0,1.688.87A2.2,2.2,0,0,0,14.4,36.05.44.44,0,0,0,14.387,35.941Z" transform="translate(0 -32)" fill="#fff"/>
      </g>
    </g>
    <g id="Group_20595" data-name="Group 20595" transform="translate(0.9 38.671)">
      <g id="Group_20594" data-name="Group 20594">
        <path id="Path_27566" data-name="Path 27566" d="M43.363,269.713a2.945,2.945,0,0,1-1.688-.529,3.029,3.029,0,0,1-3.375,0,3.029,3.029,0,0,1-3.375,0,2.922,2.922,0,0,1-2.925.249v4.78a.9.9,0,0,0,.9.9h3.6v-3.6h3.6v3.6h3.6a.9.9,0,0,0,.9-.9v-4.78A2.92,2.92,0,0,1,43.363,269.713Z" transform="translate(-32 -269.184)" fill="#fff"/>
      </g>
    </g>
  </g>
</svg>
