<svg xmlns="http://www.w3.org/2000/svg" width="14.326" height="13.525" viewBox="0 0 14.326 13.525">
  <path id="support" d="M8.368,26.982a.872.872,0,0,0-.872-.872H6.429a.872.872,0,1,0,0,1.743H7.5a.872.872,0,0,0,.872-.872ZM1.832,24.735a3.774,3.774,0,0,0,.5.007,2.474,2.474,0,0,0,2.427,2H5.09a1.368,1.368,0,0,0,0,.49H4.758a2.963,2.963,0,0,1-2.926-2.492Zm-.249-.521A1.9,1.9,0,0,1,0,22.342V21.184a1.9,1.9,0,0,1,1.9-1.9h.126a4.954,4.954,0,0,1,9.875,0h.126a1.9,1.9,0,0,1,1.9,1.9v1.157a1.9,1.9,0,0,1-1.9,1.9h-.56a.421.421,0,0,1-.421-.421V19.682a4.083,4.083,0,1,0-8.166,0V23.82a.421.421,0,0,1-.231.376,2.568,2.568,0,0,1-1.066.019Z" transform="translate(0.2 -14.529)" fill="#fff" stroke="#fff" stroke-width="0.4" fill-rule="evenodd"/>
</svg>
