<svg xmlns="http://www.w3.org/2000/svg" width="21.512" height="17.21" viewBox="0 0 21.512 17.21">
  <g id="firstname_basicinfo_signup" transform="translate(-40.744 -230.895)">
    <path id="Icon_material-subtitles" data-name="Icon material-subtitles" d="M22.361,6H5.151A2.158,2.158,0,0,0,3,8.151V21.059A2.158,2.158,0,0,0,5.151,23.21H22.361a2.158,2.158,0,0,0,2.151-2.151V8.151A2.158,2.158,0,0,0,22.361,6ZM5.151,14.6h4.3v2.151h-4.3Zm10.756,6.454H5.151V18.907H15.907Zm6.454,0h-4.3V18.907h4.3Zm0-4.3H11.6V14.6H22.361Z" transform="translate(37.744 224.895)" fill="#ccc"/>
  </g>
</svg>
